0
SECTION
2
HEADER
9
$INSUNITS
70
4
9
$ACADVER
1
AC1014
9
$HANDSEED
5
FFFF
0
ENDSEC
0
SECTION
2
TABLES
0
TABLE
2
VPORT
5
8
100
AcDbSymbolTable
0
ENDTAB
0
TABLE
2
LTYPE
5
5
100
AcDbSymbolTable
0
LTYPE
5
14
100
AcDbSymbolTableRecord
100
AcDbLinetypeTableRecord
2
BYBLOCK
70
0
0
LTYPE
5
15
100
AcDbSymbolTableRecord
100
AcDbLinetypeTableRecord
2
BYLAYER
70
0
0
ENDTAB
0
TABLE
2
LAYER
5
2
100
AcDbSymbolTable
70
2
0
LAYER
5
50
100
AcDbSymbolTableRecord
100
AcDbLayerTableRecord
2
0
70
0
6
CONTINUOUS
0
ENDTAB
0
TABLE
2
STYLE
5
3
100
AcDbSymbolTable
70
1
0
STYLE
5
11
100
AcDbSymbolTableRecord
100
AcDbTextStyleTableRecord
2
STANDARD
70
0
0
ENDTAB
0
TABLE
2
VIEW
5
6
100
AcDbSymbolTable
70
0
0
ENDTAB
0
TABLE
2
UCS
5
7
100
AcDbSymbolTable
70
0
0
ENDTAB
0
TABLE
2
APPID
5
9
100
AcDbSymbolTable
70
2
0
APPID
5
12
100
AcDbSymbolTableRecord
100
AcDbRegAppTableRecord
2
ACAD
70
0
0
ENDTAB
0
TABLE
2
DIMSTYLE
5
A
100
AcDbSymbolTable
70
1
0
ENDTAB
0
TABLE
2
BLOCK_RECORD
5
1
100
AcDbSymbolTable
70
1
0
BLOCK_RECORD
5
1F
100
AcDbSymbolTableRecord
100
AcDbBlockTableRecord
2
*MODEL_SPACE
0
BLOCK_RECORD
5
1B
100
AcDbSymbolTableRecord
100
AcDbBlockTableRecord
2
*PAPER_SPACE
0
ENDTAB
0
ENDSEC
0
SECTION
2
BLOCKS
0
BLOCK
5
20
100
AcDbEntity
100
AcDbBlockBegin
2
*MODEL_SPACE
0
ENDBLK
5
21
100
AcDbEntity
100
AcDbBlockEnd
0
BLOCK
5
1C
100
AcDbEntity
100
AcDbBlockBegin
2
*PAPER_SPACE
0
ENDBLK
5
1D
100
AcDbEntity
100
AcDbBlockEnd
0
ENDSEC
0
SECTION
2
ENTITIES
0
LWPOLYLINE
5
100
100
AcDbEntity
8
0
100
AcDbPolyline
90
8
70
1
43
0.0
10
-4.0274190586292473e-14
20
143.90721476869322
10
473.99999976188178
20
143.90721476869322
42
-0.41421356237310336
10
478.99999976188178
20
138.90721476869319
10
478.99999976188178
20
5.0000000000000178
42
-0.41421356237309809
10
473.99999976188178
20
5.5511151231257827e-16
10
0
20
0
42
-0.4142135623730952
10
-5.0000000000000009
20
5
10
-5.0000000000000089
20
138.90721476869322
42
-0.41421356237309354
0
CIRCLE
5
101
100
AcDbEntity
8
0
100
AcDbCircle
10
-475.49999976188178
20
136.90721476869325
30
0
40
1.4999999999999858
210
0
220
0
230
-1
0
LWPOLYLINE
5
102
100
AcDbEntity
8
0
100
AcDbPolyline
90
4
70
1
43
0.0
10
249.2499999999996
20
41.953607384346689
10
302.4999999999992
20
41.953607384346654
10
302.4999999999992
20
46.953607384346583
10
249.2499999999996
20
46.953607384346654
0
LWPOLYLINE
5
103
100
AcDbEntity
8
0
100
AcDbPolyline
90
7
70
1
43
0.0
10
320.49999999999909
20
68.953607384346441
10
320.49999999999909
20
86.95360738434627
10
304.49999999999926
20
86.95360738434627
10
304.49999999999926
20
111.95360738434637
10
320.49999999999909
20
111.95360738434637
10
330.49999999999909
20
111.95360738434637
10
330.49999999999909
20
68.953607384346441
0
LWPOLYLINE
5
104
100
AcDbEntity
8
0
100
AcDbPolyline
90
7
70
1
43
0.0
10
320.49999999999955
20
33.953607384346682
10
320.49999999999955
20
41.953607384346654
10
304.49999999999926
20
41.953607384346654
10
304.49999999999926
20
66.953607384346441
10
320.49999999999909
20
66.953607384346441
10
330.49999999999909
20
66.953607384346441
10
330.49999999999909
20
33.953607384346682
0
LWPOLYLINE
5
105
100
AcDbEntity
8
0
100
AcDbPolyline
90
4
70
1
43
0.0
10
194
20
46.953607384346725
10
194
20
41.953607384346725
10
247.2499999999996
20
41.953607384346725
10
247.2499999999996
20
46.953607384346689
0
CIRCLE
5
106
100
AcDbEntity
8
0
100
AcDbCircle
10
21.999999999999957
20
18.953607384346611
30
0
40
1.25
210
0
220
0
230
1
0
CIRCLE
5
107
100
AcDbEntity
8
0
100
AcDbCircle
10
140.99999999999994
20
46.703607384346597
30
0
40
5.75
210
0
220
0
230
1
0
CIRCLE
5
108
100
AcDbEntity
8
0
100
AcDbCircle
10
301.2499999999992
20
56.953607384346476
30
0
40
1.2500000000000011
210
0
220
0
230
1
0
LWPOLYLINE
5
109
100
AcDbEntity
8
0
100
AcDbPolyline
90
4
70
1
43
0.0
10
31.999999999999957
20
17.703607384346576
10
41.999999999999957
20
17.703607384346576
10
41.999999999999957
20
70.953607384346611
10
31.999999999999957
20
70.953607384346611
0
CIRCLE
5
110
100
AcDbEntity
8
0
100
AcDbCircle
10
80.999999999999943
20
46.703607384346597
30
0
40
5.75
210
0
220
0
230
1
0
CIRCLE
5
111
100
AcDbEntity
8
0
100
AcDbCircle
10
301.2499999999992
20
56.953607384346476
30
0
40
1.2500000000000011
210
0
220
0
230
1
0
LINE
5
112
100
AcDbEntity
8
0
100
AcDbLine
10
131.99999999999994
20
15.703607384346583
30
0
11
151.99999999999994
21
15.703607384346583
31
0
0
CIRCLE
5
113
100
AcDbEntity
8
0
100
AcDbCircle
10
51.999999999999957
20
18.953607384346611
30
0
40
1.25
210
0
220
0
230
1
0
CIRCLE
5
114
100
AcDbEntity
8
0
100
AcDbCircle
10
20.999999999999943
20
46.703607384346597
30
0
40
5.75
210
0
220
0
230
1
0
LWPOLYLINE
5
115
100
AcDbEntity
8
0
100
AcDbPolyline
90
8
70
1
43
0.0
10
320.49999999999955
20
31.953607384346689
10
304.4999999999996
20
31.953607384346689
10
304.4999999999996
20
11.953607384346654
10
194.00000289082527
20
11.953607384346654
10
194.00000289082527
20
7.0000001043081284
10
330.49999999999909
20
6.9999999999999432
10
330.49999999999909
20
11.953607384346654
10
330.49999999999909
20
31.953607384346689
0
LWPOLYLINE
5
116
100
AcDbEntity
8
0
100
AcDbPolyline
90
4
70
1
43
0.0
10
101.99999999999996
20
72.953607384346554
10
91.999999999999957
20
72.953607384346554
10
91.999999999999957
20
126.20360738434658
10
101.99999999999996
20
126.20360738434658
0
CIRCLE
5
117
100
AcDbEntity
8
0
100
AcDbCircle
10
110.99999999999994
20
46.703607384346597
30
0
40
5.75
210
0
220
0
230
1
0
CIRCLE
5
118
100
AcDbEntity
8
0
100
AcDbCircle
10
81.999999999999957
20
18.953607384346611
30
0
40
1.25
210
0
220
0
230
1
0
CIRCLE
5
119
100
AcDbEntity
8
0
100
AcDbCircle
10
170.99999999999994
20
46.703607384346597
30
0
40
5.75
210
0
220
0
230
1
0
LWPOLYLINE
5
120
100
AcDbEntity
8
0
100
AcDbPolyline
90
4
70
1
43
0.0
10
161.99999999999994
20
72.953607384346554
10
151.99999999999994
20
72.953607384346554
10
151.99999999999994
20
126.20360738434658
10
161.99999999999994
20
126.20360738434658
0
CIRCLE
5
121
100
AcDbEntity
8
0
100
AcDbCircle
10
50.999999999999943
20
46.703607384346597
30
0
40
5.75
210
0
220
0
230
1
0
CIRCLE
5
122
100
AcDbEntity
8
0
100
AcDbCircle
10
141.99999999999994
20
18.953607384346611
30
0
40
1.25
210
0
220
0
230
1
0
CIRCLE
5
123
100
AcDbEntity
8
0
100
AcDbCircle
10
111.99999999999996
20
18.953607384346611
30
0
40
1.25
210
0
220
0
230
1
0
LINE
5
124
100
AcDbEntity
8
0
100
AcDbLine
10
131.99999999999994
20
15.703607384346583
30
0
11
121.99999999999996
21
15.703607384346583
31
0
0
LINE
5
125
100
AcDbEntity
8
0
100
AcDbLine
10
101.99999999999996
20
15.703607384346583
30
0
11
94.000001400709152
21
15.703607384346583
31
0
0
LWPOLYLINE
5
126
100
AcDbEntity
8
0
100
AcDbPolyline
90
4
70
1
43
0.0
10
121.99999999999996
20
17.703607384346576
10
131.99999999999994
20
17.703607384346576
10
131.99999999999994
20
70.953607384346611
10
121.99999999999996
20
70.953607384346611
0
LINE
5
127
100
AcDbEntity
8
0
100
AcDbLine
10
71.999999999999957
20
15.703607384346583
30
0
11
91.999999999999957
21
15.703607384346583
31
0
0
LWPOLYLINE
5
128
100
AcDbEntity
8
0
100
AcDbPolyline
90
4
70
1
43
0.0
10
41.999999999999957
20
126.20360738434658
10
41.999999999999957
20
72.953607384346554
10
31.999999999999957
20
72.953607384346554
10
31.999999999999957
20
126.20360738434658
0
LINE
5
129
100
AcDbEntity
8
0
100
AcDbLine
10
41.999999999999957
20
15.703607384346583
30
0
11
31.999999999999957
21
15.703607384346583
31
0
0
LWPOLYLINE
5
130
100
AcDbEntity
8
0
100
AcDbPolyline
90
4
70
1
43
0.0
10
228.99999999999983
20
37.953607384346668
10
217.99999999999989
20
37.953607384346668
10
217.99999999999989
20
15.953607384346711
10
228.99999999999983
20
15.953607384346711
0
LINE
5
131
100
AcDbEntity
8
0
100
AcDbLine
10
101.99999999999996
20
128.20360738434658
30
0
11
93.999999999999943
21
128.20360738434658
31
0
0
LWPOLYLINE
5
132
100
AcDbEntity
8
0
100
AcDbPolyline
90
4
70
1
43
0.0
10
161.99999999999994
20
70.953607384346611
10
151.99999999999994
20
70.953607384346611
10
151.99999999999994
20
17.703607384346576
10
161.99999999999994
20
17.703607384346576
0
LINE
5
133
100
AcDbEntity
8
0
100
AcDbLine
10
71.999999999999957
20
128.20360738434658
30
0
11
61.999999999999957
21
128.20360738434658
31
0
0
LINE
5
134
100
AcDbEntity
8
0
100
AcDbLine
10
41.999999999999957
20
15.703607384346583
30
0
11
61.999999999999957
21
15.703607384346583
31
0
0
LINE
5
135
100
AcDbEntity
8
0
100
AcDbLine
10
11.999999999999957
20
15.703607384346583
30
0
11
31.999999999999957
21
15.703607384346583
31
0
0
LWPOLYLINE
5
136
100
AcDbEntity
8
0
100
AcDbPolyline
90
4
70
1
43
0.0
10
131.99999999999994
20
72.953607384346554
10
121.99999999999996
20
72.953607384346554
10
121.99999999999996
20
126.20360738434658
10
131.99999999999994
20
126.20360738434658
0
LWPOLYLINE
5
137
100
AcDbEntity
8
0
100
AcDbPolyline
90
4
70
1
43
0.0
10
249.2499999999996
20
91.953607384346583
10
302.4999999999992
20
91.953607384346512
10
302.4999999999992
20
86.95360738434627
10
249.2499999999996
20
86.953607384346327
0
CIRCLE
5
138
100
AcDbEntity
8
0
100
AcDbCircle
10
273.49999999999937
20
100.95360738434636
30
0
40
5.7500000000000071
210
0
220
0
230
1
0
CIRCLE
5
139
100
AcDbEntity
8
0
100
AcDbCircle
10
173.03999999999996
20
85.703607384346583
30
0
40
1.4999999999999913
210
0
220
0
230
1
0
LWPOLYLINE
5
140
100
AcDbEntity
8
0
100
AcDbPolyline
90
13
70
1
43
0.0
10
320.49999999999909
20
113.95360738434636
10
320.49999999999909
20
131.95360738434616
10
194.00000000000003
20
131.9536073843463
10
194.00000000000003
20
136.90721476869325
10
471.99999976188172
20
136.90721476869325
10
471.99999976188172
20
113.95360738434636
10
458.99999999999818
20
113.95360738434636
10
458.99999999999818
20
131.95360738434616
10
332.49999999999915
20
131.9536073843463
10
332.49999999999915
20
136.90721476869325
10
330.49999999999909
20
136.90721476869325
10
330.49999999999909
20
131.9536073843463
10
330.49999999999909
20
113.95360738434636
0
CIRCLE
5
141
100
AcDbEntity
8
0
100
AcDbCircle
10
83.039999999999949
20
85.703607384346583
30
0
40
1.4999999999999913
210
0
220
0
230
1
0
LWPOLYLINE
5
142
100
AcDbEntity
8
0
100
AcDbPolyline
90
4
70
1
43
0.0
10
71.999999999999957
20
72.953607384346554
10
61.999999999999957
20
72.953607384346554
10
61.999999999999957
20
126.20360738434658
10
71.999999999999957
20
126.20360738434658
0
LWPOLYLINE
5
143
100
AcDbEntity
8
0
100
AcDbPolyline
90
4
70
1
43
0.0
10
101.99999999999996
20
70.953607384346611
10
91.999999999999957
20
70.953607384346611
10
91.999999999999957
20
17.703607384346576
10
101.99999999999996
20
17.703607384346576
0
LINE
5
144
100
AcDbEntity
8
0
100
AcDbLine
10
71.999999999999957
20
128.20360738434658
30
0
11
91.999999999999957
21
128.20360738434658
31
0
0
CIRCLE
5
145
100
AcDbEntity
8
0
100
AcDbCircle
10
137.95999999999992
20
85.703607384346583
30
0
40
1.4999999999999993
210
0
220
0
230
1
0
CIRCLE
5
146
100
AcDbEntity
8
0
100
AcDbCircle
10
301.2499999999992
20
101.95360738434641
30
0
40
1.2500000000000011
210
0
220
0
230
1
0
LWPOLYLINE
5
147
100
AcDbEntity
8
0
100
AcDbPolyline
90
4
70
1
43
0.0
10
194
20
91.953607384346611
10
247.2499999999996
20
91.953607384346583
10
247.2499999999996
20
86.953607384346327
10
194
20
86.95360738434637
0
CIRCLE
5
148
100
AcDbEntity
8
0
100
AcDbCircle
10
206.74999999999997
20
99.203607384346455
30
0
40
1.2500000000000002
210
0
220
0
230
1
0
CIRCLE
5
149
100
AcDbEntity
8
0
100
AcDbCircle
10
49.249999999999901
20
113.45360738434664
30
0
40
1.25
210
0
220
0
230
1
0
LINE
5
150
100
AcDbEntity
8
0
100
AcDbLine
10
161.99999999999994
20
128.20360738434658
30
0
11
151.99999999999994
21
128.20360738434658
31
0
0
LWPOLYLINE
5
151
100
AcDbEntity
8
0
100
AcDbPolyline
90
4
70
1
43
0.0
10
71.999999999999957
20
70.953607384346611
10
61.999999999999957
20
70.953607384346611
10
61.999999999999957
20
17.703607384346576
10
71.999999999999957
20
17.703607384346576
0
CIRCLE
5
152
100
AcDbEntity
8
0
100
AcDbCircle
10
167.95999999999992
20
85.703607384346583
30
0
40
1.4999999999999993
210
0
220
0
230
1
0
CIRCLE
5
153
100
AcDbEntity
8
0
100
AcDbCircle
10
169.24999999999989
20
113.45360738434664
30
0
40
1.25
210
0
220
0
230
1
0
CIRCLE
5
154
100
AcDbEntity
8
0
100
AcDbCircle
10
79.249999999999901
20
113.45360738434664
30
0
40
1.25
210
0
220
0
230
1
0
LINE
5
155
100
AcDbEntity
8
0
100
AcDbLine
10
161.99999999999994
20
128.20360738434658
30
0
11
181.99999999999994
21
128.20360738434658
31
0
0
CIRCLE
5
156
100
AcDbEntity
8
0
100
AcDbCircle
10
256.49999999999949
20
100.95360738434636
30
0
40
5.75
210
0
220
0
230
1
0
CIRCLE
5
157
100
AcDbEntity
8
0
100
AcDbCircle
10
301.2499999999992
20
101.95360738434641
30
0
40
1.2500000000000011
210
0
220
0
230
1
0
CIRCLE
5
158
100
AcDbEntity
8
0
100
AcDbCircle
10
77.959999999999923
20
85.703607384346583
30
0
40
1.4999999999999993
210
0
220
0
230
1
0
CIRCLE
5
159
100
AcDbEntity
8
0
100
AcDbCircle
10
234.49999999999966
20
102.9936073843464
30
0
40
1.4999999999999916
210
0
220
0
230
1
0
CIRCLE
5
160
100
AcDbEntity
8
0
100
AcDbCircle
10
139.24999999999989
20
113.45360738434664
30
0
40
1.25
210
0
220
0
230
1
0
CIRCLE
5
161
100
AcDbEntity
8
0
100
AcDbCircle
10
17.959999999999923
20
85.703607384346583
30
0
40
1.4999999999999993
210
0
220
0
230
1
0
CIRCLE
5
162
100
AcDbEntity
8
0
100
AcDbCircle
10
113.03999999999995
20
85.703607384346583
30
0
40
1.4999999999999913
210
0
220
0
230
1
0
LINE
5
163
100
AcDbEntity
8
0
100
AcDbLine
10
41.999999999999957
20
128.20360738434658
30
0
11
61.999999999999957
21
128.20360738434658
31
0
0
LINE
5
164
100
AcDbEntity
8
0
100
AcDbLine
10
131.99999999999994
20
128.20360738434658
30
0
11
151.99999999999994
21
128.20360738434658
31
0
0
CIRCLE
5
165
100
AcDbEntity
8
0
100
AcDbCircle
10
53.039999999999949
20
85.703607384346583
30
0
40
1.4999999999999913
210
0
220
0
230
1
0
LINE
5
166
100
AcDbEntity
8
0
100
AcDbLine
10
131.99999999999994
20
128.20360738434658
30
0
11
121.99999999999996
21
128.20360738434658
31
0
0
CIRCLE
5
167
100
AcDbEntity
8
0
100
AcDbCircle
10
107.95999999999992
20
85.703607384346583
30
0
40
1.4999999999999993
210
0
220
0
230
1
0
CIRCLE
5
168
100
AcDbEntity
8
0
100
AcDbCircle
10
234.49999999999966
20
97.913607384346449
30
0
40
1.4999999999999996
210
0
220
0
230
1
0
CIRCLE
5
169
100
AcDbEntity
8
0
100
AcDbCircle
10
109.2499999999999
20
113.45360738434664
30
0
40
1.25
210
0
220
0
230
1
0
CIRCLE
5
170
100
AcDbEntity
8
0
100
AcDbCircle
10
23.039999999999949
20
85.703607384346583
30
0
40
1.4999999999999913
210
0
220
0
230
1
0
LINE
5
171
100
AcDbEntity
8
0
100
AcDbLine
10
41.999999999999957
20
128.20360738434658
30
0
11
31.999999999999957
21
128.20360738434658
31
0
0
CIRCLE
5
172
100
AcDbEntity
8
0
100
AcDbCircle
10
47.959999999999923
20
85.703607384346583
30
0
40
1.4999999999999993
210
0
220
0
230
1
0
LINE
5
173
100
AcDbEntity
8
0
100
AcDbLine
10
11.999999999999957
20
128.20360738434658
30
0
11
31.999999999999957
21
128.20360738434658
31
0
0
LINE
5
174
100
AcDbEntity
8
0
100
AcDbLine
10
101.99999999999996
20
128.20360738434658
30
0
11
121.99999999999996
21
128.20360738434658
31
0
0
CIRCLE
5
175
100
AcDbEntity
8
0
100
AcDbCircle
10
19.249999999999901
20
113.45360738434664
30
0
40
1.25
210
0
220
0
230
1
0
CIRCLE
5
176
100
AcDbEntity
8
0
100
AcDbCircle
10
143.03999999999996
20
85.703607384346583
30
0
40
1.4999999999999913
210
0
220
0
230
1
0
LINE
5
177
100
AcDbEntity
8
0
100
AcDbLine
10
161.99999999999994
20
15.703607384346583
30
0
11
181.99999999999994
21
15.703607384346583
31
0
0
CIRCLE
5
178
100
AcDbEntity
8
0
100
AcDbCircle
10
20.999999999999943
20
63.703607384346626
30
0
40
5.7499999999999982
210
0
220
0
230
1
0
CIRCLE
5
179
100
AcDbEntity
8
0
100
AcDbCircle
10
110.99999999999994
20
63.703607384346626
30
0
40
5.7499999999999982
210
0
220
0
230
1
0
CIRCLE
5
180
100
AcDbEntity
8
0
100
AcDbCircle
10
170.99999999999994
20
63.703607384346626
30
0
40
5.7499999999999982
210
0
220
0
230
1
0
CIRCLE
5
181
100
AcDbEntity
8
0
100
AcDbCircle
10
234.49999999999983
20
17.91360738434669
30
0
40
1.4999999999999996
210
0
220
0
230
1
0
CIRCLE
5
182
100
AcDbEntity
8
0
100
AcDbCircle
10
171.99999999999994
20
18.953607384346611
30
0
40
1.25
210
0
220
0
230
1
0
CIRCLE
5
183
100
AcDbEntity
8
0
100
AcDbCircle
10
256.49999999999949
20
55.953607384346391
30
0
40
5.75
210
0
220
0
230
1
0
CIRCLE
5
184
100
AcDbEntity
8
0
100
AcDbCircle
10
273.49999999999937
20
55.953607384346391
30
0
40
5.7500000000000071
210
0
220
0
230
1
0
LWPOLYLINE
5
185
100
AcDbEntity
8
0
100
AcDbPolyline
90
4
70
1
43
0.0
10
278.4999999999996
20
29.453607384346689
10
278.4999999999996
20
15.453607384346597
10
262.49999999999966
20
15.453607384346597
10
262.49999999999966
20
29.453607384346689
0
CIRCLE
5
186
100
AcDbEntity
8
0
100
AcDbCircle
10
301.24999999999955
20
21.953607384346654
30
0
40
1.2500000000000011
210
0
220
0
230
1
0
CIRCLE
5
187
100
AcDbEntity
8
0
100
AcDbCircle
10
301.24999999999955
20
21.953607384346654
30
0
40
1.2500000000000011
210
0
220
0
230
1
0
CIRCLE
5
188
100
AcDbEntity
8
0
100
AcDbCircle
10
301.24999999999955
20
21.953607384346654
30
0
40
1.2500000000000011
210
0
220
0
230
1
0
CIRCLE
5
189
100
AcDbEntity
8
0
100
AcDbCircle
10
301.24999999999955
20
21.953607384346654
30
0
40
1.2500000000000011
210
0
220
0
230
1
0
CIRCLE
5
190
100
AcDbEntity
8
0
100
AcDbCircle
10
80.999999999999943
20
63.703607384346626
30
0
40
5.7499999999999982
210
0
220
0
230
1
0
CIRCLE
5
191
100
AcDbEntity
8
0
100
AcDbCircle
10
234.49999999999983
20
22.993607384346646
30
0
40
1.4999999999999916
210
0
220
0
230
1
0
CIRCLE
5
192
100
AcDbEntity
8
0
100
AcDbCircle
10
234.49999999999983
20
17.91360738434669
30
0
40
1.4999999999999996
210
0
220
0
230
1
0
CIRCLE
5
193
100
AcDbEntity
8
0
100
AcDbCircle
10
140.99999999999994
20
63.703607384346626
30
0
40
5.7499999999999982
210
0
220
0
230
1
0
CIRCLE
5
194
100
AcDbEntity
8
0
100
AcDbCircle
10
234.49999999999983
20
17.91360738434669
30
0
40
1.4999999999999996
210
0
220
0
230
1
0
CIRCLE
5
195
100
AcDbEntity
8
0
100
AcDbCircle
10
234.49999999999983
20
22.993607384346646
30
0
40
1.4999999999999916
210
0
220
0
230
1
0
CIRCLE
5
196
100
AcDbEntity
8
0
100
AcDbCircle
10
50.999999999999943
20
63.703607384346626
30
0
40
5.7499999999999982
210
0
220
0
230
1
0
CIRCLE
5
197
100
AcDbEntity
8
0
100
AcDbCircle
10
206.74999999999997
20
19.203607384346597
30
0
40
1.2500000000000002
210
0
220
0
230
1
0
CIRCLE
5
198
100
AcDbEntity
8
0
100
AcDbCircle
10
234.49999999999983
20
22.993607384346646
30
0
40
1.4999999999999916
210
0
220
0
230
1
0
CIRCLE
5
199
100
AcDbEntity
8
0
100
AcDbCircle
10
206.74999999999997
20
19.203607384346597
30
0
40
1.2500000000000002
210
0
220
0
230
1
0
CIRCLE
5
200
100
AcDbEntity
8
0
100
AcDbCircle
10
206.74999999999997
20
19.203607384346597
30
0
40
1.2500000000000002
210
0
220
0
230
1
0
CIRCLE
5
201
100
AcDbEntity
8
0
100
AcDbCircle
10
234.49999999999966
20
52.913607384346513
30
0
40
1.4999999999999996
210
0
220
0
230
1
0
CIRCLE
5
202
100
AcDbEntity
8
0
100
AcDbCircle
10
206.74999999999989
20
54.203607384346526
30
0
40
1.2500000000000002
210
0
220
0
230
1
0
LINE
5
203
100
AcDbEntity
8
0
100
AcDbLine
10
101.99999999999996
20
15.703607384346583
30
0
11
121.99999999999996
21
15.703607384346583
31
0
0
CIRCLE
5
204
100
AcDbEntity
8
0
100
AcDbCircle
10
234.49999999999966
20
57.993607384346468
30
0
40
1.4999999999999916
210
0
220
0
230
1
0
LINE
5
205
100
AcDbEntity
8
0
100
AcDbLine
10
161.99999999999994
20
15.703607384346583
30
0
11
151.99999999999994
21
15.703607384346583
31
0
0
LINE
5
206
100
AcDbEntity
8
0
100
AcDbLine
10
71.999999999999957
20
15.703607384346583
30
0
11
61.999999999999957
21
15.703607384346583
31
0
0
LINE
5
207
100
AcDbEntity
8
0
100
AcDbLine
10
191.99999999999994
20
15.703607384346583
30
0
11
181.99999999999994
21
15.703607384346583
31
0
0
LWPOLYLINE
5
208
100
AcDbEntity
8
0
100
AcDbPolyline
90
4
70
1
43
0.0
10
181.99999999999994
20
17.703607384346576
10
191.99999999999994
20
17.703607384346576
10
191.99999999999994
20
70.953607384346611
10
181.99999999999994
20
70.953607384346611
0
LWPOLYLINE
5
209
100
AcDbEntity
8
0
100
AcDbPolyline
90
4
70
1
43
0.0
10
191.99999999999994
20
72.953607384346554
10
181.99999999999994
20
72.953607384346554
10
181.99999999999994
20
126.20360738434658
10
191.99999999999994
20
126.20360738434658
0
LINE
5
210
100
AcDbEntity
8
0
100
AcDbLine
10
191.99999999999994
20
128.20360738434658
30
0
11
181.99999999999994
21
128.20360738434658
31
0
0
LINE
5
211
100
AcDbEntity
8
0
100
AcDbLine
10
192.00000000000003
20
131.9536073843463
30
0
11
191.99999999999994
21
128.20360738434658
31
0
0
LINE
5
212
100
AcDbEntity
8
0
100
AcDbLine
10
191.99999999999994
20
15.703607384346583
30
0
11
191.99999999999994
21
11.953607384346654
31
0
0
LWPOLYLINE
5
213
100
AcDbEntity
8
0
100
AcDbPolyline
90
4
70
1
43
0.0
10
440.99999999999841
20
46.953607384346583
10
387.74999999999875
20
46.953607384346654
10
387.74999999999875
20
41.953607384346689
10
440.99999999999841
20
41.953607384346654
0
LWPOLYLINE
5
214
100
AcDbEntity
8
0
100
AcDbPolyline
90
7
70
1
43
0.0
10
458.99999999999818
20
111.95360738434637
10
442.99999999999841
20
111.95360738434637
10
442.99999999999841
20
86.95360738434627
10
458.99999999999818
20
86.95360738434627
10
458.99999999999818
20
68.953607384346441
10
471.99999976188172
20
68.953607384346441
10
471.99999976188172
20
111.95360738434637
0
CIRCLE
5
215
100
AcDbEntity
8
0
100
AcDbCircle
10
439.74999999999864
20
21.953607384346654
30
0
40
1.2500000000000011
210
0
220
0
230
1
0
LWPOLYLINE
5
216
100
AcDbEntity
8
0
100
AcDbPolyline
90
4
70
1
43
0.0
10
440.99999999999841
20
91.953607384346512
10
440.99999999999841
20
86.95360738434627
10
387.74999999999875
20
86.953607384346327
10
387.74999999999875
20
91.953607384346583
0
LWPOLYLINE
5
217
100
AcDbEntity
8
0
100
AcDbPolyline
90
7
70
1
43
0.0
10
458.99999999999864
20
33.953607384346689
10
458.99999999999864
20
41.953607384346654
10
442.99999999999841
20
41.953607384346654
10
442.99999999999841
20
66.953607384346441
10
458.99999999999818
20
66.953607384346441
10
471.99999976188172
20
66.953607384346441
10
471.99999976188172
20
33.953607384346689
0
LWPOLYLINE
5
218
100
AcDbEntity
8
0
100
AcDbPolyline
90
7
70
1
43
0.0
10
458.99999999999864
20
31.953607384346689
10
442.99999999999869
20
31.953607384346689
10
442.99999999999869
20
11.953607384346654
10
332.49999999999915
20
11.953607384346654
10
332.49999999999915
20
6.9999999999999432
10
471.99999976188172
20
6.9999999999999218
10
471.99999976188172
20
31.953607384346689
0
CIRCLE
5
219
100
AcDbEntity
8
0
100
AcDbCircle
10
394.99999999999858
20
100.95360738434636
30
0
40
5.75
210
0
220
0
230
1
0
CIRCLE
5
220
100
AcDbEntity
8
0
100
AcDbCircle
10
394.99999999999858
20
55.953607384346391
30
0
40
5.75
210
0
220
0
230
1
0
LWPOLYLINE
5
221
100
AcDbEntity
8
0
100
AcDbPolyline
90
4
70
1
43
0.0
10
416.99999999999875
20
29.453607384346689
10
416.99999999999875
20
15.453607384346597
10
400.99999999999881
20
15.453607384346597
10
400.99999999999881
20
29.453607384346689
0
CIRCLE
5
222
100
AcDbEntity
8
0
100
AcDbCircle
10
372.99999999999898
20
17.91360738434669
30
0
40
1.4999999999999996
210
0
220
0
230
1
0
CIRCLE
5
223
100
AcDbEntity
8
0
100
AcDbCircle
10
411.99999999999847
20
100.95360738434636
30
0
40
5.7500000000000071
210
0
220
0
230
1
0
CIRCLE
5
224
100
AcDbEntity
8
0
100
AcDbCircle
10
372.99999999999886
20
57.993607384346468
30
0
40
1.4999999999999916
210
0
220
0
230
1
0
CIRCLE
5
225
100
AcDbEntity
8
0
100
AcDbCircle
10
372.99999999999898
20
22.993607384346646
30
0
40
1.4999999999999916
210
0
220
0
230
1
0
CIRCLE
5
226
100
AcDbEntity
8
0
100
AcDbCircle
10
411.99999999999847
20
55.953607384346391
30
0
40
5.7500000000000071
210
0
220
0
230
1
0
LWPOLYLINE
5
227
100
AcDbEntity
8
0
100
AcDbPolyline
90
4
70
1
43
0.0
10
332.49999999999915
20
91.953607384346611
10
385.74999999999875
20
91.953607384346583
10
385.74999999999875
20
86.953607384346327
10
332.49999999999915
20
86.95360738434637
0
LWPOLYLINE
5
228
100
AcDbEntity
8
0
100
AcDbPolyline
90
4
70
1
43
0.0
10
385.74999999999875
20
46.953607384346689
10
332.49999999999915
20
46.953607384346725
10
332.49999999999915
20
41.953607384346725
10
385.74999999999875
20
41.953607384346725
0
CIRCLE
5
229
100
AcDbEntity
8
0
100
AcDbCircle
10
372.99999999999898
20
22.993607384346646
30
0
40
1.4999999999999916
210
0
220
0
230
1
0
CIRCLE
5
230
100
AcDbEntity
8
0
100
AcDbCircle
10
372.99999999999886
20
52.913607384346513
30
0
40
1.4999999999999996
210
0
220
0
230
1
0
CIRCLE
5
231
100
AcDbEntity
8
0
100
AcDbCircle
10
439.74999999999864
20
21.953607384346654
30
0
40
1.2500000000000011
210
0
220
0
230
1
0
LWPOLYLINE
5
232
100
AcDbEntity
8
0
100
AcDbPolyline
90
4
70
1
43
0.0
10
356.49999999999909
20
37.953607384346668
10
356.49999999999909
20
15.953607384346711
10
367.49999999999898
20
15.953607384346711
10
367.49999999999898
20
37.953607384346668
0
CIRCLE
5
233
100
AcDbEntity
8
0
100
AcDbCircle
10
345.24999999999909
20
54.203607384346526
30
0
40
1.2500000000000002
210
0
220
0
230
1
0
CIRCLE
5
234
100
AcDbEntity
8
0
100
AcDbCircle
10
439.74999999999841
20
56.953607384346476
30
0
40
1.2500000000000011
210
0
220
0
230
1
0
CIRCLE
5
235
100
AcDbEntity
8
0
100
AcDbCircle
10
439.74999999999841
20
101.95360738434641
30
0
40
1.2500000000000011
210
0
220
0
230
1
0
CIRCLE
5
236
100
AcDbEntity
8
0
100
AcDbCircle
10
372.99999999999898
20
17.91360738434669
30
0
40
1.4999999999999996
210
0
220
0
230
1
0
CIRCLE
5
237
100
AcDbEntity
8
0
100
AcDbCircle
10
372.99999999999886
20
102.9936073843464
30
0
40
1.4999999999999916
210
0
220
0
230
1
0
CIRCLE
5
238
100
AcDbEntity
8
0
100
AcDbCircle
10
439.74999999999841
20
56.953607384346476
30
0
40
1.2500000000000011
210
0
220
0
230
1
0
CIRCLE
5
239
100
AcDbEntity
8
0
100
AcDbCircle
10
345.24999999999909
20
19.203607384346597
30
0
40
1.2500000000000002
210
0
220
0
230
1
0
CIRCLE
5
240
100
AcDbEntity
8
0
100
AcDbCircle
10
345.24999999999909
20
99.203607384346455
30
0
40
1.2500000000000002
210
0
220
0
230
1
0
CIRCLE
5
241
100
AcDbEntity
8
0
100
AcDbCircle
10
345.24999999999909
20
19.203607384346597
30
0
40
1.2500000000000002
210
0
220
0
230
1
0
CIRCLE
5
242
100
AcDbEntity
8
0
100
AcDbCircle
10
345.24999999999909
20
19.203607384346597
30
0
40
1.2500000000000002
210
0
220
0
230
1
0
CIRCLE
5
243
100
AcDbEntity
8
0
100
AcDbCircle
10
372.99999999999898
20
17.91360738434669
30
0
40
1.4999999999999996
210
0
220
0
230
1
0
CIRCLE
5
244
100
AcDbEntity
8
0
100
AcDbCircle
10
439.74999999999864
20
21.953607384346654
30
0
40
1.2500000000000011
210
0
220
0
230
1
0
CIRCLE
5
245
100
AcDbEntity
8
0
100
AcDbCircle
10
439.74999999999864
20
21.953607384346654
30
0
40
1.2500000000000011
210
0
220
0
230
1
0
CIRCLE
5
246
100
AcDbEntity
8
0
100
AcDbCircle
10
372.99999999999898
20
22.993607384346646
30
0
40
1.4999999999999916
210
0
220
0
230
1
0
CIRCLE
5
247
100
AcDbEntity
8
0
100
AcDbCircle
10
372.99999999999886
20
97.913607384346449
30
0
40
1.4999999999999996
210
0
220
0
230
1
0
CIRCLE
5
248
100
AcDbEntity
8
0
100
AcDbCircle
10
439.74999999999841
20
101.95360738434641
30
0
40
1.2500000000000011
210
0
220
0
230
1
0
LINE
5
249
100
AcDbEntity
8
0
100
AcDbLine
10
11.999999999999957
20
15.703607384346583
30
0
11
1.9999999999999574
21
15.703607384346583
31
0
0
LWPOLYLINE
5
250
100
AcDbEntity
8
0
100
AcDbPolyline
90
4
70
1
43
0.0
10
1.9999999999999574
20
17.703607384346576
10
11.999999999999957
20
17.703607384346576
10
11.999999999999957
20
70.953607384346583
10
1.9999999999999485
20
70.953607384346583
0
LINE
5
251
100
AcDbEntity
8
0
100
AcDbLine
10
11.999999999999957
20
128.20360738434658
30
0
11
1.9999999999999574
21
128.20360738434658
31
0
0
LWPOLYLINE
5
252
100
AcDbEntity
8
0
100
AcDbPolyline
90
4
70
1
43
0.0
10
1.9999999999999574
20
126.20360738434658
10
11.999999999999957
20
126.20360738434658
10
11.999999999999961
20
72.953607384346583
10
1.9999999999999574
20
72.953607384346583
0
LINE
5
253
100
AcDbEntity
8
0
100
AcDbLine
10
1.9999999999999574
20
15.703607384346583
30
0
11
1.9999999999999574
21
6.9999999999999929
31
0
0
LINE
5
254
100
AcDbEntity
8
0
100
AcDbLine
10
1.9999999999999574
20
136.90721476869325
30
0
11
1.9999999999999574
21
128.20360738434658
31
0
0
LINE
5
255
100
AcDbEntity
8
0
100
AcDbLine
10
192.00000000000003
20
136.90721476869325
30
0
11
192.00000000000003
21
131.9536073843463
31
0
0
LINE
5
256
100
AcDbEntity
8
0
100
AcDbLine
10
191.99999999999994
20
7.0000001043081284
30
0
11
191.99999999999994
21
11.953607384346654
31
0
0
LINE
5
257
100
AcDbEntity
8
0
100
AcDbLine
10
93.999999999999943
20
128.20360738434658
30
0
11
93.999999999999943
21
136.90721476869325
31
0
0
LINE
5
258
100
AcDbEntity
8
0
100
AcDbLine
10
91.999999999999957
20
136.90721476869325
30
0
11
91.999999999999957
21
128.20360738434658
31
0
0
LINE
5
259
100
AcDbEntity
8
0
100
AcDbLine
10
94.000001400709152
20
15.703607384346583
30
0
11
94.000001400709152
21
7.0000001043081284
31
0
0
LINE
5
260
100
AcDbEntity
8
0
100
AcDbLine
10
91.999999999999957
20
7.0000001043081284
30
0
11
91.999999999999957
21
15.703607384346583
31
0
0
LINE
5
261
100
AcDbEntity
8
0
100
AcDbLine
10
91.999999999999957
20
136.90721476869325
30
0
11
1.9999999999999574
21
136.90721476869325
31
0
0
LINE
5
262
100
AcDbEntity
8
0
100
AcDbLine
10
1.9999999999999574
20
6.9999999999999929
30
0
11
91.999999999999957
21
7.0000001043081284
31
0
0
LINE
5
263
100
AcDbEntity
8
0
100
AcDbLine
10
192.00000000000003
20
136.90721476869325
30
0
11
93.999999999999943
21
136.90721476869325
31
0
0
LINE
5
264
100
AcDbEntity
8
0
100
AcDbLine
10
94.000001400709152
20
7.0000001043081284
30
0
11
191.99999999999994
21
7.0000001043081284
31
0
0
CIRCLE
5
265
100
AcDbEntity
8
0
100
AcDbCircle
10
475.49999976188184
20
7.0000000000001705
30
0
40
1.5000000000000009
210
0
220
0
230
1
0
CIRCLE
5
266
100
AcDbEntity
8
0
100
AcDbCircle
10
62.000000000000526
20
140.40721476869328
30
0
40
1.5000000000000224
210
0
220
0
230
1
0
CIRCLE
5
267
100
AcDbEntity
8
0
100
AcDbCircle
10
136.99999988094129
20
140.40721476869325
30
0
40
1.4999999999999929
210
0
220
0
230
1
0
CIRCLE
5
268
100
AcDbEntity
8
0
100
AcDbCircle
10
136.99999988094129
20
3.5000000000001563
30
0
40
1.4999999999999929
210
0
220
0
230
1
0
CIRCLE
5
269
100
AcDbEntity
8
0
100
AcDbCircle
10
336.99999988094112
20
140.40721476869325
30
0
40
1.4999999999999958
210
0
220
0
230
1
0
CIRCLE
5
270
100
AcDbEntity
8
0
100
AcDbCircle
10
-1.4999999999993463
20
136.90721476869334
30
0
40
1.5000000000000027
210
0
220
0
230
1
0
CIRCLE
5
271
100
AcDbEntity
8
0
100
AcDbCircle
10
-1.4999999999993463
20
37.000000000000171
30
0
40
1.4999999999999989
210
0
220
0
230
1
0
CIRCLE
5
272
100
AcDbEntity
8
0
100
AcDbCircle
10
261.99999988094123
20
140.40721476869325
30
0
40
1.4999999999999993
210
0
220
0
230
1
0
CIRCLE
5
273
100
AcDbEntity
8
0
100
AcDbCircle
10
261.99999988094123
20
3.5000000000001563
30
0
40
1.4999999999999993
210
0
220
0
230
1
0
CIRCLE
5
274
100
AcDbEntity
8
0
100
AcDbCircle
10
-1.4999999999993463
20
106.90721476869335
30
0
40
1.5000000000000047
210
0
220
0
230
1
0
CIRCLE
5
275
100
AcDbEntity
8
0
100
AcDbCircle
10
62.000000000000526
20
3.5000000000002274
30
0
40
1.5000000000000224
210
0
220
0
230
1
0
CIRCLE
5
276
100
AcDbEntity
8
0
100
AcDbCircle
10
411.99999988094106
20
3.5000000000001208
30
0
40
1.4999999999999933
210
0
220
0
230
1
0
CIRCLE
5
277
100
AcDbEntity
8
0
100
AcDbCircle
10
475.49999976188184
20
37.000000000000135
30
0
40
1.4999999999999989
210
0
220
0
230
1
0
CIRCLE
5
278
100
AcDbEntity
8
0
100
AcDbCircle
10
475.49999976188178
20
71.953607384346725
30
0
40
1.4999999999999942
210
0
220
0
230
1
0
CIRCLE
5
279
100
AcDbEntity
8
0
100
AcDbCircle
10
411.99999988094106
20
140.40721476869322
30
0
40
1.4999999999999933
210
0
220
0
230
1
0
CIRCLE
5
280
100
AcDbEntity
8
0
100
AcDbCircle
10
212.00000000000031
20
3.5000000000002274
30
0
40
1.4999999999999925
210
0
220
0
230
1
0
CIRCLE
5
281
100
AcDbEntity
8
0
100
AcDbCircle
10
212.00000000000031
20
140.40721476869328
30
0
40
1.4999999999999925
210
0
220
0
230
1
0
CIRCLE
5
282
100
AcDbEntity
8
0
100
AcDbCircle
10
-1.4999999999993463
20
7.0000000000002061
30
-5.0291646175789742e-30
40
1.5000000000000142
210
0
220
0
230
1
0
CIRCLE
5
283
100
AcDbEntity
8
0
100
AcDbCircle
10
-1.4999999999993463
20
71.953607384346753
30
0
40
1.4999999999999942
210
0
220
0
230
1
0
CIRCLE
5
284
100
AcDbEntity
8
0
100
AcDbCircle
10
336.99999988094112
20
3.5000000000001208
30
0
40
1.4999999999999958
210
0
220
0
230
1
0
CIRCLE
5
285
100
AcDbEntity
8
0
100
AcDbCircle
10
475.49999976188178
20
106.90721476869331
30
0
40
1.5000000000000047
210
0
220
0
230
1
0
ENDSEC
0
SECTION
2
OBJECTS
0
DICTIONARY
5
C
100
AcDbDictionary
3
ACAD_GROUP
350
D
3
ACAD_MLINESTYLE
350
17
0
DICTIONARY
5
D
100
AcDbDictionary
0
DICTIONARY
5
1A
330
C
100
AcDbDictionary
0
DICTIONARY
5
17
100
AcDbDictionary
0
ENDSEC
0
EOF
