0
SECTION
2
HEADER
9
$INSUNITS
70
4
9
$ACADVER
1
AC1014
9
$HANDSEED
5
FFFF
0
ENDSEC
0
SECTION
2
TABLES
0
TABLE
2
VPORT
5
8
100
AcDbSymbolTable
0
ENDTAB
0
TABLE
2
LTYPE
5
5
100
AcDbSymbolTable
0
LTYPE
5
14
100
AcDbSymbolTableRecord
100
AcDbLinetypeTableRecord
2
BYBLOCK
70
0
0
LTYPE
5
15
100
AcDbSymbolTableRecord
100
AcDbLinetypeTableRecord
2
BYLAYER
70
0
0
ENDTAB
0
TABLE
2
LAYER
5
2
100
AcDbSymbolTable
70
2
0
LAYER
5
50
100
AcDbSymbolTableRecord
100
AcDbLayerTableRecord
2
0
70
0
6
CONTINUOUS
0
ENDTAB
0
TABLE
2
STYLE
5
3
100
AcDbSymbolTable
70
1
0
STYLE
5
11
100
AcDbSymbolTableRecord
100
AcDbTextStyleTableRecord
2
STANDARD
70
0
0
ENDTAB
0
TABLE
2
VIEW
5
6
100
AcDbSymbolTable
70
0
0
ENDTAB
0
TABLE
2
UCS
5
7
100
AcDbSymbolTable
70
0
0
ENDTAB
0
TABLE
2
APPID
5
9
100
AcDbSymbolTable
70
2
0
APPID
5
12
100
AcDbSymbolTableRecord
100
AcDbRegAppTableRecord
2
ACAD
70
0
0
ENDTAB
0
TABLE
2
DIMSTYLE
5
A
100
AcDbSymbolTable
70
1
0
ENDTAB
0
TABLE
2
BLOCK_RECORD
5
1
100
AcDbSymbolTable
70
1
0
BLOCK_RECORD
5
1F
100
AcDbSymbolTableRecord
100
AcDbBlockTableRecord
2
*MODEL_SPACE
0
BLOCK_RECORD
5
1B
100
AcDbSymbolTableRecord
100
AcDbBlockTableRecord
2
*PAPER_SPACE
0
ENDTAB
0
ENDSEC
0
SECTION
2
BLOCKS
0
BLOCK
5
20
100
AcDbEntity
100
AcDbBlockBegin
2
*MODEL_SPACE
0
ENDBLK
5
21
100
AcDbEntity
100
AcDbBlockEnd
0
BLOCK
5
1C
100
AcDbEntity
100
AcDbBlockBegin
2
*PAPER_SPACE
0
ENDBLK
5
1D
100
AcDbEntity
100
AcDbBlockEnd
0
ENDSEC
0
SECTION
2
ENTITIES
0
LWPOLYLINE
5
100
100
AcDbEntity
8
0
100
AcDbPolyline
90
10
70
1
43
0.0
10
36.803398874988886
20
169.04584498747715
10
437.19660088689238
20
169.04584498747715
42
-0.11643382146584995
10
459.55728066189016
20
163.76720453747288
10
478.99999976188178
20
154.04584498747718
10
478.99999976188178
20
5.0000000000000178
42
-0.41421356237310258
10
473.99999976188178
20
0
10
1.2325951644078309e-31
20
1.1102230246251565e-15
42
-0.41421356237309481
10
-4.9999999999999991
20
4.9999999999999982
10
-5.0000000000001421
20
154.04584498747715
10
14.442719099990944
20
163.76720453747276
42
-0.11643382146584284
0
LWPOLYLINE
5
101
100
AcDbEntity
8
0
100
AcDbPolyline
90
36
70
1
43
0.0
10
192.7440423000005
20
104.33669999999999
10
192.7440423000005
20
110.60670000000002
10
191.01904230000045
20
110.60670000000002
10
191.01904230000045
20
111.80700000000002
10
187.72004230000047
20
111.80700000000002
10
187.72004230000047
20
110.60670000000002
10
185.9940423000005
20
110.60670000000002
10
185.9940423000005
20
106.13779999999998
10
184.46904230000047
20
106.13779999999998
10
184.46904230000047
20
110.83689999999997
10
170.47004230000039
20
110.83689999999997
10
170.47004230000039
20
106.13779999999998
10
168.94404230000049
20
106.13779999999998
10
168.94404230000049
20
110.60670000000002
10
167.2190423000005
20
110.60670000000002
10
167.2190423000005
20
111.80700000000002
10
163.92004230000055
20
111.80700000000002
10
163.92004230000055
20
110.60670000000002
10
162.19504230000055
20
110.60670000000002
10
162.19504230000055
20
104.33669999999999
10
161.36904230000056
20
104.33669999999999
10
161.36904230000056
20
101.53789999999999
10
162.19504230000055
20
101.53789999999999
10
162.19504230000055
20
98.307699999999997
10
168.94404230000049
20
98.307699999999997
10
168.94404230000049
20
101.53789999999999
10
170.47004230000039
20
101.53789999999999
10
170.47004230000039
20
96.837499999999963
10
184.46904230000047
20
96.837499999999963
10
184.46904230000047
20
101.53789999999999
10
185.9940423000005
20
101.53789999999999
10
185.9940423000005
20
98.307699999999997
10
192.7440423000005
20
98.307699999999997
10
192.7440423000005
20
101.53789999999999
10
193.57004230000047
20
101.53789999999999
10
193.57004230000047
20
104.33669999999999
0
LWPOLYLINE
5
102
100
AcDbEntity
8
0
100
AcDbPolyline
90
4
70
1
43
0.0
10
68.076042300000523
20
96.837499999999963
10
82.074042300000514
20
96.837499999999963
10
82.074042300000514
20
110.83689999999997
10
68.076042300000523
20
110.83689999999997
0
LWPOLYLINE
5
103
100
AcDbEntity
8
0
100
AcDbPolyline
90
4
70
1
43
0.0
10
413.35724230000051
20
77.787399999999977
10
427.35794230000062
20
77.787399999999977
10
427.35794230000062
20
91.786699999999968
10
413.35724230000051
20
91.786699999999968
0
LWPOLYLINE
5
104
100
AcDbEntity
8
0
100
AcDbPolyline
90
4
70
1
43
0.0
10
401.45104230000061
20
53.686699999999981
10
401.45104230000061
20
39.687399999999982
10
415.45034230000056
20
39.687399999999982
10
415.45034230000056
20
53.686699999999981
0
LWPOLYLINE
5
105
100
AcDbEntity
8
0
100
AcDbPolyline
90
4
70
1
43
0.0
10
306.20104230000049
20
39.687399999999982
10
320.20004230000052
20
39.687399999999982
10
320.20004230000052
20
53.686699999999981
10
306.20104230000049
20
53.686699999999981
0
LWPOLYLINE
5
106
100
AcDbEntity
8
0
100
AcDbPolyline
90
4
70
1
43
0.0
10
272.57504230000046
20
58.73739999999998
10
272.57504230000046
20
72.736699999999971
10
258.57604230000044
20
72.736699999999971
10
258.57604230000044
20
58.73739999999998
0
LWPOLYLINE
5
107
100
AcDbEntity
8
0
100
AcDbPolyline
90
4
70
1
43
0.0
10
463.07539230000037
20
115.88740000000001
10
463.07539230000037
20
129.88685999999998
10
449.07584230000055
20
129.88685999999998
10
449.07584230000055
20
115.88740000000001
0
LWPOLYLINE
5
108
100
AcDbEntity
8
0
100
AcDbPolyline
90
4
70
1
43
0.0
10
418.11974230000061
20
115.88740000000001
10
432.11914230000053
20
115.88740000000001
10
432.11914230000053
20
129.88685999999998
10
418.11974230000061
20
129.88685999999998
0
LWPOLYLINE
5
109
100
AcDbEntity
8
0
100
AcDbPolyline
90
4
70
1
43
0.0
10
301.15004230000056
20
39.687399999999982
10
301.15004230000056
20
53.686699999999981
10
287.15104230000054
20
53.686699999999981
10
287.15104230000054
20
39.687399999999982
0
LWPOLYLINE
5
110
100
AcDbEntity
8
0
100
AcDbPolyline
90
4
70
1
43
0.0
10
272.86304230000047
20
91.786699999999968
10
272.86304230000047
20
77.787399999999977
10
286.86304230000047
20
77.787399999999977
10
286.86304230000047
20
91.786699999999968
0
LWPOLYLINE
5
111
100
AcDbEntity
8
0
100
AcDbPolyline
90
4
70
1
43
0.0
10
63.024042300000502
20
91.786699999999968
10
49.026042300000512
20
91.786699999999968
10
49.026042300000512
20
77.787399999999977
10
63.024042300000502
20
77.787399999999977
0
LWPOLYLINE
5
112
100
AcDbEntity
8
0
100
AcDbPolyline
90
4
70
1
43
0.0
10
263.3380423000005
20
110.83689999999997
10
263.3380423000005
20
96.837499999999963
10
277.3380423000005
20
96.837499999999963
10
277.3380423000005
20
110.83689999999997
0
LWPOLYLINE
5
113
100
AcDbEntity
8
0
100
AcDbPolyline
90
4
70
1
43
0.0
10
220.18804230000046
20
96.837499999999963
10
220.18804230000046
20
110.83689999999997
10
206.18804230000049
20
110.83689999999997
10
206.18804230000049
20
96.837499999999963
0
LWPOLYLINE
5
114
100
AcDbEntity
8
0
100
AcDbPolyline
90
36
70
1
43
0.0
10
15.625042300000446
20
97.261799999999994
10
18.426042300000489
20
97.261799999999994
10
18.426042300000489
20
98.087199999999967
10
24.695042300000551
20
98.087199999999967
10
24.695042300000551
20
99.812599999999975
10
25.894042300000567
20
99.812599999999975
10
25.894042300000567
20
103.1116
10
24.695042300000551
20
103.1116
10
24.695042300000551
20
104.83689999999996
10
20.225042300000524
20
104.83689999999996
10
20.225042300000524
20
106.36239999999999
10
24.924042300000483
20
106.36239999999999
10
24.924042300000483
20
120.36189999999998
10
20.225042300000524
20
120.36189999999998
10
20.225042300000524
20
121.88739999999996
10
24.695042300000551
20
121.88739999999996
10
24.695042300000551
20
123.61264999999996
10
25.894042300000567
20
123.61264999999996
10
25.894042300000567
20
126.91168999999996
10
24.695042300000551
20
126.91168999999996
10
24.695042300000551
20
128.63697999999997
10
18.426042300000489
20
128.63697999999997
10
18.426042300000489
20
129.46242999999998
10
15.625042300000446
20
129.46242999999998
10
15.625042300000446
20
128.63697999999997
10
12.393042300000589
20
128.63697999999997
10
12.393042300000589
20
121.88739999999996
10
15.625042300000446
20
121.88739999999996
10
15.625042300000446
20
120.36189999999998
10
10.926042300000489
20
120.36189999999998
10
10.926042300000489
20
106.36239999999999
10
15.625042300000446
20
106.36239999999999
10
15.625042300000446
20
104.83689999999996
10
12.393042300000589
20
104.83689999999996
10
12.393042300000589
20
98.087199999999967
10
15.625042300000446
20
98.087199999999967
0
LWPOLYLINE
5
115
100
AcDbEntity
8
0
100
AcDbPolyline
90
4
70
1
43
0.0
10
320.20004230000052
20
29.874499999999955
10
306.20104230000049
20
29.874499999999955
10
306.20104230000049
20
15.874499999999969
10
320.20004230000052
20
15.874499999999969
0
LWPOLYLINE
5
116
100
AcDbEntity
8
0
100
AcDbPolyline
90
4
70
1
43
0.0
10
291.62504230000047
20
72.736699999999971
10
277.62604230000039
20
72.736699999999971
10
277.62604230000039
20
58.73739999999998
10
291.62504230000047
20
58.73739999999998
0
LWPOLYLINE
5
117
100
AcDbEntity
8
0
100
AcDbPolyline
90
4
70
1
43
0.0
10
43.974042300000498
20
72.736699999999971
10
29.976042300000501
20
72.736699999999971
10
29.976042300000501
20
58.73739999999998
10
43.974042300000498
20
58.73739999999998
0
LWPOLYLINE
5
118
100
AcDbEntity
8
0
100
AcDbPolyline
90
4
70
1
43
0.0
10
420.50104230000051
20
39.687399999999982
10
434.50034230000057
20
39.687399999999982
10
434.50034230000057
20
53.686699999999981
10
420.50104230000051
20
53.686699999999981
0
LWPOLYLINE
5
119
100
AcDbEntity
8
0
100
AcDbPolyline
90
4
70
1
43
0.0
10
282.1000423000005
20
39.687399999999982
10
282.1000423000005
20
53.686699999999981
10
268.10104230000047
20
53.686699999999981
10
268.10104230000047
20
39.687399999999982
0
LWPOLYLINE
5
120
100
AcDbEntity
8
0
100
AcDbPolyline
90
4
70
1
43
0.0
10
91.888042300000592
20
129.88685999999998
10
91.888042300000592
20
115.88740000000001
10
105.88604230000044
20
115.88740000000001
10
105.88604230000044
20
129.88685999999998
0
LWPOLYLINE
5
121
100
AcDbEntity
8
0
100
AcDbPolyline
90
4
70
1
43
0.0
10
391.63784230000061
20
110.83689999999997
10
377.63854230000055
20
110.83689999999997
10
377.63854230000055
20
96.837499999999963
10
391.63784230000061
20
96.837499999999963
0
LWPOLYLINE
5
122
100
AcDbEntity
8
0
100
AcDbPolyline
90
4
70
1
43
0.0
10
463.07539230000037
20
77.787399999999977
10
463.07539230000037
20
91.786699999999968
10
449.07584230000055
20
91.786699999999968
10
449.07584230000055
20
77.787399999999977
0
LWPOLYLINE
5
123
100
AcDbEntity
8
0
100
AcDbPolyline
90
36
70
1
43
0.0
10
20.225042300000524
20
83.787499999999966
10
24.695042300000551
20
83.787499999999966
10
24.695042300000551
20
85.512599999999978
10
25.894042300000567
20
85.512599999999978
10
25.894042300000567
20
88.811799999999977
10
24.695042300000551
20
88.811799999999977
10
24.695042300000551
20
90.536799999999971
10
18.426042300000489
20
90.536799999999971
10
18.426042300000489
20
91.362299999999962
10
15.625042300000446
20
91.362299999999962
10
15.625042300000446
20
90.536799999999971
10
12.393042300000589
20
90.536799999999971
10
12.393042300000589
20
83.787499999999966
10
15.625042300000446
20
83.787499999999966
10
15.625042300000446
20
82.261699999999976
10
10.926042300000489
20
82.261699999999976
10
10.926042300000489
20
68.262399999999971
10
15.625042300000446
20
68.262399999999971
10
15.625042300000446
20
66.736999999999966
10
12.393042300000589
20
66.736999999999966
10
12.393042300000589
20
59.987299999999983
10
15.625042300000446
20
59.987299999999983
10
15.625042300000446
20
59.161799999999971
10
18.426042300000489
20
59.161799999999971
10
18.426042300000489
20
59.987299999999983
10
24.695042300000551
20
59.987299999999983
10
24.695042300000551
20
61.712399999999974
10
25.894042300000567
20
61.712399999999974
10
25.894042300000567
20
65.011599999999973
10
24.695042300000551
20
65.011599999999973
10
24.695042300000551
20
66.736999999999966
10
20.225042300000524
20
66.736999999999966
10
20.225042300000524
20
68.262399999999971
10
24.924042300000483
20
68.262399999999971
10
24.924042300000483
20
82.261699999999976
10
20.225042300000524
20
82.261699999999976
0
LWPOLYLINE
5
124
100
AcDbEntity
8
0
100
AcDbPolyline
90
4
70
1
43
0.0
10
287.15104230000054
20
15.874499999999969
10
301.15004230000056
20
15.874499999999969
10
301.15004230000056
20
29.874499999999955
10
287.15104230000054
20
29.874499999999955
0
LWPOLYLINE
5
125
100
AcDbEntity
8
0
100
AcDbPolyline
90
4
70
1
43
0.0
10
349.06304230000052
20
91.786699999999968
10
349.06304230000052
20
77.787399999999977
10
363.06304230000052
20
77.787399999999977
10
363.06304230000052
20
91.786699999999968
0
LWPOLYLINE
5
126
100
AcDbEntity
8
0
100
AcDbPolyline
90
4
70
1
43
0.0
10
394.30724230000061
20
129.88685999999998
10
394.30724230000061
20
115.88740000000001
10
408.3079423000006
20
115.88740000000001
10
408.3079423000006
20
129.88685999999998
0
LWPOLYLINE
5
127
100
AcDbEntity
8
0
100
AcDbPolyline
90
4
70
1
43
0.0
10
315.72604230000047
20
58.73739999999998
10
329.7250423000005
20
58.73739999999998
10
329.7250423000005
20
72.736699999999971
10
315.72604230000047
20
72.736699999999971
0
LWPOLYLINE
5
128
100
AcDbEntity
8
0
100
AcDbPolyline
90
4
70
1
43
0.0
10
358.30004230000054
20
29.874499999999955
10
344.30104230000052
20
29.874499999999955
10
344.30104230000052
20
15.874499999999969
10
358.30004230000054
20
15.874499999999969
0
LWPOLYLINE
5
129
100
AcDbEntity
8
0
100
AcDbPolyline
90
4
70
1
43
0.0
10
344.01304230000051
20
77.787399999999977
10
344.01304230000051
20
91.786699999999968
10
330.01304230000039
20
91.786699999999968
10
330.01304230000039
20
77.787399999999977
0
LWPOLYLINE
5
130
100
AcDbEntity
8
0
100
AcDbPolyline
90
4
70
1
43
0.0
10
401.16284230000053
20
91.786699999999968
10
387.16354230000059
20
91.786699999999968
10
387.16354230000059
20
77.787399999999977
10
401.16284230000053
20
77.787399999999977
0
LWPOLYLINE
5
131
100
AcDbEntity
8
0
100
AcDbPolyline
90
4
70
1
43
0.0
10
325.25104230000062
20
39.687399999999982
10
339.25004230000047
20
39.687399999999982
10
339.25004230000047
20
53.686699999999981
10
325.25104230000062
20
53.686699999999981
0
LWPOLYLINE
5
132
100
AcDbEntity
8
0
100
AcDbPolyline
90
4
70
1
43
0.0
10
449.07584230000055
20
110.83689999999997
10
449.07584230000055
20
96.837499999999963
10
463.07539230000037
20
96.837499999999963
10
463.07539230000037
20
110.83689999999997
0
LWPOLYLINE
5
133
100
AcDbEntity
8
0
100
AcDbPolyline
90
4
70
1
43
0.0
10
49.026042300000512
20
39.687399999999982
10
63.024042300000502
20
39.687399999999982
10
63.024042300000502
20
53.686699999999981
10
49.026042300000512
20
53.686699999999981
0
LWPOLYLINE
5
134
100
AcDbEntity
8
0
100
AcDbPolyline
90
4
70
1
43
0.0
10
296.38804230000051
20
96.837499999999963
10
296.38804230000051
20
110.83689999999997
10
282.38804230000039
20
110.83689999999997
10
282.38804230000039
20
96.837499999999963
0
LWPOLYLINE
5
135
100
AcDbEntity
8
0
100
AcDbPolyline
90
4
70
1
43
0.0
10
415.73854230000052
20
72.736699999999971
10
415.73854230000052
20
58.73739999999998
10
429.73784230000058
20
58.73739999999998
10
429.73784230000058
20
72.736699999999971
0
LWPOLYLINE
5
136
100
AcDbEntity
8
0
100
AcDbPolyline
90
4
70
1
43
0.0
10
358.30004230000054
20
39.687399999999982
10
358.30004230000054
20
53.686699999999981
10
344.30104230000052
20
53.686699999999981
10
344.30104230000052
20
39.687399999999982
0
LWPOLYLINE
5
137
100
AcDbEntity
8
0
100
AcDbPolyline
90
4
70
1
43
0.0
10
415.45034230000056
20
29.874499999999955
10
401.45104230000061
20
29.874499999999955
10
401.45104230000061
20
15.874499999999969
10
415.45034230000056
20
15.874499999999969
0
LWPOLYLINE
5
138
100
AcDbEntity
8
0
100
AcDbPolyline
90
4
70
1
43
0.0
10
334.48804230000053
20
110.83689999999997
10
320.48804230000036
20
110.83689999999997
10
320.48804230000036
20
96.837499999999963
10
334.48804230000053
20
96.837499999999963
0
LWPOLYLINE
5
139
100
AcDbEntity
8
0
100
AcDbPolyline
90
4
70
1
43
0.0
10
418.11974230000061
20
96.837499999999963
10
432.11914230000053
20
96.837499999999963
10
432.11914230000053
20
110.83689999999997
10
418.11974230000061
20
110.83689999999997
0
LWPOLYLINE
5
140
100
AcDbEntity
8
0
100
AcDbPolyline
90
4
70
1
43
0.0
10
43.974042300000498
20
129.88685999999998
10
29.976042300000501
20
129.88685999999998
10
29.976042300000501
20
115.88740000000001
10
43.974042300000498
20
115.88740000000001
0
LWPOLYLINE
5
141
100
AcDbEntity
8
0
100
AcDbPolyline
90
4
70
1
43
0.0
10
353.82604230000055
20
58.73739999999998
10
367.82534230000061
20
58.73739999999998
10
367.82534230000061
20
72.736699999999971
10
353.82604230000055
20
72.736699999999971
0
LWPOLYLINE
5
142
100
AcDbEntity
8
0
100
AcDbPolyline
90
4
70
1
43
0.0
10
301.43804230000052
20
96.837499999999963
10
315.43804230000052
20
96.837499999999963
10
315.43804230000052
20
110.83689999999997
10
301.43804230000052
20
110.83689999999997
0
LWPOLYLINE
5
143
100
AcDbEntity
8
0
100
AcDbPolyline
90
4
70
1
43
0.0
10
291.91304230000048
20
77.787399999999977
10
305.91304230000048
20
77.787399999999977
10
305.91304230000048
20
91.786699999999968
10
291.91304230000048
20
91.786699999999968
0
LWPOLYLINE
5
144
100
AcDbEntity
8
0
100
AcDbPolyline
90
4
70
1
43
0.0
10
124.93804230000052
20
96.837499999999963
10
124.93804230000052
20
110.83689999999997
10
110.9380423000006
20
110.83689999999997
10
110.9380423000006
20
96.837499999999963
0
LWPOLYLINE
5
145
100
AcDbEntity
8
0
100
AcDbPolyline
90
4
70
1
43
0.0
10
396.40034230000055
20
53.686699999999981
10
382.40104230000054
20
53.686699999999981
10
382.40104230000054
20
39.687399999999982
10
396.40034230000055
20
39.687399999999982
0
LWPOLYLINE
5
146
100
AcDbEntity
8
0
100
AcDbPolyline
90
4
70
1
43
0.0
10
449.07584230000055
20
20.637499999999989
10
463.07539230000037
20
20.637499999999989
10
463.07539230000037
20
34.636699999999969
10
449.07584230000055
20
34.636699999999969
0
LWPOLYLINE
5
147
100
AcDbEntity
8
0
100
AcDbPolyline
90
36
70
1
43
0.0
10
259.43304230000047
20
129.65672999999998
10
257.70804230000056
20
129.65672999999998
10
257.70804230000056
20
130.857
10
254.40704230000048
20
130.857
10
254.40704230000048
20
129.65672999999998
10
252.68204230000049
20
129.65672999999998
10
252.68204230000049
20
123.38665999999998
10
251.85804230000045
20
123.38665999999998
10
251.85804230000045
20
120.58790000000002
10
252.68204230000049
20
120.58790000000002
10
252.68204230000049
20
117.35769999999997
10
259.43304230000047
20
117.35769999999997
10
259.43304230000047
20
120.58790000000002
10
299.05704230000049
20
120.58790000000002
10
299.05704230000049
20
115.88740000000001
10
313.05804230000052
20
115.88740000000001
10
313.05804230000052
20
120.58790000000002
10
352.6820423000006
20
120.58790000000002
10
352.6820423000006
20
117.35769999999997
10
359.43304230000052
20
117.35769999999997
10
359.43304230000052
20
120.58790000000002
10
360.25704230000053
20
120.58790000000002
10
360.25704230000053
20
123.38665999999998
10
359.43304230000052
20
123.38665999999998
10
359.43304230000052
20
129.65672999999998
10
357.70804230000044
20
129.65672999999998
10
357.70804230000044
20
130.857
10
354.40704230000051
20
130.857
10
354.40704230000051
20
129.65672999999998
10
352.6820423000006
20
129.65672999999998
10
352.6820423000006
20
125.18777
10
313.05804230000052
20
125.18777
10
313.05804230000052
20
129.88685999999998
10
299.05704230000049
20
129.88685999999998
10
299.05704230000049
20
125.18777
10
259.43304230000047
20
125.18777
0
LWPOLYLINE
5
148
100
AcDbEntity
8
0
100
AcDbPolyline
90
4
70
1
43
0.0
10
310.67504230000048
20
58.73739999999998
10
310.67504230000048
20
72.736699999999971
10
296.67604230000052
20
72.736699999999971
10
296.67604230000052
20
58.73739999999998
0
LWPOLYLINE
5
149
100
AcDbEntity
8
0
100
AcDbPolyline
90
4
70
1
43
0.0
10
210.95104230000047
20
53.686699999999981
10
210.95104230000047
20
39.687399999999982
10
224.95004230000049
20
39.687399999999982
10
224.95004230000049
20
53.686699999999981
0
LWPOLYLINE
5
150
100
AcDbEntity
8
0
100
AcDbPolyline
90
4
70
1
43
0.0
10
282.1000423000005
20
15.874499999999969
10
282.1000423000005
20
29.874499999999955
10
268.10104230000047
20
29.874499999999955
10
268.10104230000047
20
15.874499999999969
0
LWPOLYLINE
5
151
100
AcDbEntity
8
0
100
AcDbPolyline
90
4
70
1
43
0.0
10
82.074042300000514
20
39.687399999999982
10
82.074042300000514
20
53.686699999999981
10
68.076042300000523
20
53.686699999999981
10
68.076042300000523
20
39.687399999999982
0
LWPOLYLINE
5
152
100
AcDbEntity
8
0
100
AcDbPolyline
90
4
70
1
43
0.0
10
217.80804230000047
20
129.88685999999998
10
203.80704230000049
20
129.88685999999998
10
203.80704230000049
20
115.88740000000001
10
217.80804230000047
20
115.88740000000001
0
LWPOLYLINE
5
153
100
AcDbEntity
8
0
100
AcDbPolyline
90
4
70
1
43
0.0
10
310.9630423000005
20
91.786699999999968
10
310.9630423000005
20
77.787399999999977
10
324.9630423000005
20
77.787399999999977
10
324.9630423000005
20
91.786699999999968
0
LWPOLYLINE
5
154
100
AcDbEntity
8
0
100
AcDbPolyline
90
4
70
1
43
0.0
10
227.62004230000045
20
115.88740000000001
10
241.61904230000047
20
115.88740000000001
10
241.61904230000047
20
129.88685999999998
10
227.62004230000045
20
129.88685999999998
0
LWPOLYLINE
5
155
100
AcDbEntity
8
0
100
AcDbPolyline
90
4
70
1
43
0.0
10
239.52604230000048
20
72.736699999999971
10
239.52604230000048
20
58.73739999999998
10
253.52504230000048
20
58.73739999999998
10
253.52504230000048
20
72.736699999999971
0
LWPOLYLINE
5
156
100
AcDbEntity
8
0
100
AcDbPolyline
90
4
70
1
43
0.0
10
179.99504230000056
20
115.88740000000001
10
193.9940423000005
20
115.88740000000001
10
193.9940423000005
20
129.88685999999998
10
179.99504230000056
20
129.88685999999998
0
LWPOLYLINE
5
157
100
AcDbEntity
8
0
100
AcDbPolyline
90
4
70
1
43
0.0
10
210.95104230000047
20
29.874499999999955
10
210.95104230000047
20
15.874499999999969
10
224.95004230000049
20
15.874499999999969
10
224.95004230000049
20
29.874499999999955
0
LWPOLYLINE
5
158
100
AcDbEntity
8
0
100
AcDbPolyline
90
4
70
1
43
0.0
10
68.076042300000523
20
91.786699999999968
10
68.076042300000523
20
77.787399999999977
10
82.074042300000514
20
77.787399999999977
10
82.074042300000514
20
91.786699999999968
0
LWPOLYLINE
5
159
100
AcDbEntity
8
0
100
AcDbPolyline
90
4
70
1
43
0.0
10
230.00104230000048
20
53.686699999999981
10
230.00104230000048
20
39.687399999999982
10
244.0000423000005
20
39.687399999999982
10
244.0000423000005
20
53.686699999999981
0
LWPOLYLINE
5
160
100
AcDbEntity
8
0
100
AcDbPolyline
90
4
70
1
43
0.0
10
234.76304230000042
20
77.787399999999977
10
248.76304230000045
20
77.787399999999977
10
248.76304230000045
20
91.786699999999968
10
234.76304230000042
20
91.786699999999968
0
LWPOLYLINE
5
161
100
AcDbEntity
8
0
100
AcDbPolyline
90
4
70
1
43
0.0
10
434.50034230000057
20
15.874499999999969
10
434.50034230000057
20
29.874499999999955
10
420.50104230000051
20
29.874499999999955
10
420.50104230000051
20
15.874499999999969
0
LWPOLYLINE
5
162
100
AcDbEntity
8
0
100
AcDbPolyline
90
4
70
1
43
0.0
10
391.92604230000057
20
72.736699999999971
10
391.92604230000057
20
58.73739999999998
10
405.92534230000058
20
58.73739999999998
10
405.92534230000058
20
72.736699999999971
0
LWPOLYLINE
5
163
100
AcDbEntity
8
0
100
AcDbPolyline
90
4
70
1
43
0.0
10
263.05004230000054
20
15.874499999999969
10
263.05004230000054
20
29.874499999999955
10
249.05104230000049
20
29.874499999999955
10
249.05104230000049
20
15.874499999999969
0
LWPOLYLINE
5
164
100
AcDbEntity
8
0
100
AcDbPolyline
90
4
70
1
43
0.0
10
386.87534230000051
20
72.736699999999971
10
372.87604230000051
20
72.736699999999971
10
372.87604230000051
20
58.73739999999998
10
386.87534230000051
20
58.73739999999998
0
LWPOLYLINE
5
165
100
AcDbEntity
8
0
100
AcDbPolyline
90
4
70
1
43
0.0
10
258.28804230000048
20
110.83689999999997
10
244.28804230000048
20
110.83689999999997
10
244.28804230000048
20
96.837499999999963
10
258.28804230000048
20
96.837499999999963
0
LWPOLYLINE
5
166
100
AcDbEntity
8
0
100
AcDbPolyline
90
4
70
1
43
0.0
10
363.35104230000059
20
53.686699999999981
10
363.35104230000059
20
39.687399999999982
10
377.35034230000053
20
39.687399999999982
10
377.35034230000053
20
53.686699999999981
0
LWPOLYLINE
5
167
100
AcDbEntity
8
0
100
AcDbPolyline
90
4
70
1
43
0.0
10
396.68854230000051
20
96.837499999999963
10
410.68784230000057
20
96.837499999999963
10
410.68784230000057
20
110.83689999999997
10
396.68854230000051
20
110.83689999999997
0
LWPOLYLINE
5
168
100
AcDbEntity
8
0
100
AcDbPolyline
90
4
70
1
43
0.0
10
382.11284230000052
20
91.786699999999968
10
368.11354230000057
20
91.786699999999968
10
368.11354230000057
20
77.787399999999977
10
382.11284230000052
20
77.787399999999977
0
LWPOLYLINE
5
169
100
AcDbEntity
8
0
100
AcDbPolyline
90
36
70
1
43
0.0
10
57.027042300000524
20
117.35769999999997
10
57.027042300000524
20
120.58790000000002
10
58.551042300000525
20
120.58790000000002
10
58.551042300000525
20
115.88740000000001
10
72.549042300000508
20
115.88740000000001
10
72.549042300000508
20
120.58790000000002
10
74.076042300000452
20
120.58790000000002
10
74.076042300000452
20
117.35769999999997
10
80.825042300000547
20
117.35769999999997
10
80.825042300000547
20
120.58790000000002
10
81.651042300000384
20
120.58790000000002
10
81.651042300000384
20
123.38665999999998
10
80.825042300000547
20
123.38665999999998
10
80.825042300000547
20
129.65672999999998
10
79.10004230000041
20
129.65672999999998
10
79.10004230000041
20
130.857
10
75.801042300000461
20
130.857
10
75.801042300000461
20
129.65672999999998
10
74.076042300000452
20
129.65672999999998
10
74.076042300000452
20
125.18777
10
72.549042300000508
20
125.18777
10
72.549042300000508
20
129.88685999999998
10
58.551042300000525
20
129.88685999999998
10
58.551042300000525
20
125.18777
10
57.027042300000524
20
125.18777
10
57.027042300000524
20
129.65672999999998
10
55.302042300000522
20
129.65672999999998
10
55.302042300000522
20
130.857
10
52.000042300000473
20
130.857
10
52.000042300000473
20
129.65672999999998
10
50.27404230000046
20
129.65672999999998
10
50.27404230000046
20
123.38665999999998
10
49.449042300000492
20
123.38665999999998
10
49.449042300000492
20
120.58790000000002
10
50.27404230000046
20
120.58790000000002
10
50.27404230000046
20
117.35769999999997
0
LWPOLYLINE
5
170
100
AcDbEntity
8
0
100
AcDbPolyline
90
4
70
1
43
0.0
10
82.074042300000514
20
58.73739999999998
10
82.074042300000514
20
72.736699999999971
10
68.076042300000523
20
72.736699999999971
10
68.076042300000523
20
58.73739999999998
0
LWPOLYLINE
5
171
100
AcDbEntity
8
0
100
AcDbPolyline
90
4
70
1
43
0.0
10
463.07539230000037
20
72.736699999999971
10
449.07584230000055
20
72.736699999999971
10
449.07584230000055
20
58.73739999999998
10
463.07539230000037
20
58.73739999999998
0
LWPOLYLINE
5
172
100
AcDbEntity
8
0
100
AcDbPolyline
90
4
70
1
43
0.0
10
384.49404230000056
20
129.88685999999998
10
370.49474230000055
20
129.88685999999998
10
370.49474230000055
20
115.88740000000001
10
384.49404230000056
20
115.88740000000001
0
LWPOLYLINE
5
173
100
AcDbEntity
8
0
100
AcDbPolyline
90
4
70
1
43
0.0
10
29.976042300000501
20
110.83689999999997
10
29.976042300000501
20
96.837499999999963
10
43.974042300000498
20
96.837499999999963
10
43.974042300000498
20
110.83689999999997
0
LWPOLYLINE
5
174
100
AcDbEntity
8
0
100
AcDbPolyline
90
4
70
1
43
0.0
10
141.2001661939014
20
85.62314451359363
10
139.2001661939014
20
85.62314451359363
10
139.2001661939014
20
24.623144513593633
10
141.2001661939014
20
24.62314451359363
0
LINE
5
175
100
AcDbEntity
8
0
100
AcDbLine
10
105.20016619390141
20
24.62314451359363
30
0
11
135.2001661939014
21
24.62314451359363
31
0
0
LWPOLYLINE
5
176
100
AcDbEntity
8
0
100
AcDbPolyline
90
4
70
1
43
0.0
10
101.20016619390142
20
24.62314451359363
10
101.20016619390142
20
85.62314451359363
10
99.20016619390141
20
85.62314451359363
10
99.20016619390141
20
24.623144513593633
0
LINE
5
177
100
AcDbEntity
8
0
100
AcDbLine
10
105.20016619390141
20
83.623144513593644
30
0
11
135.2001661939014
21
83.623144513593644
31
0
0
LWPOLYLINE
5
178
100
AcDbEntity
8
0
100
AcDbPolyline
90
4
70
1
43
0.0
10
244.0000423000005
20
29.874499999999955
10
230.00104230000048
20
29.874499999999955
10
230.00104230000048
20
15.874499999999969
10
244.0000423000005
20
15.874499999999969
0
LWPOLYLINE
5
179
100
AcDbEntity
8
0
100
AcDbPolyline
90
4
70
1
43
0.0
10
263.05004230000054
20
39.687399999999982
10
263.05004230000054
20
53.686699999999981
10
249.05104230000049
20
53.686699999999981
10
249.05104230000049
20
39.687399999999982
0
LWPOLYLINE
5
180
100
AcDbEntity
8
0
100
AcDbPolyline
90
4
70
1
43
0.0
10
267.81304230000046
20
91.786699999999968
10
253.81304230000046
20
91.786699999999968
10
253.81304230000046
20
77.787399999999977
10
267.81304230000046
20
77.787399999999977
0
LWPOLYLINE
5
181
100
AcDbEntity
8
0
100
AcDbPolyline
90
4
70
1
43
0.0
10
156.18204230000049
20
129.88685999999998
10
156.18204230000049
20
115.88740000000001
10
170.18304230000055
20
115.88740000000001
10
170.18304230000055
20
129.88685999999998
0
LWPOLYLINE
5
182
100
AcDbEntity
8
0
100
AcDbPolyline
90
4
70
1
43
0.0
10
129.98804230000047
20
129.88685999999998
10
129.98804230000047
20
115.88740000000001
10
143.98804230000053
20
115.88740000000001
10
143.98804230000053
20
129.88685999999998
0
LWPOLYLINE
5
183
100
AcDbEntity
8
0
100
AcDbPolyline
90
36
70
1
43
0.0
10
178.85104230000053
20
41.157799999999966
10
185.60004230000047
20
41.157799999999966
10
185.60004230000047
20
44.387899999999973
10
186.42604230000046
20
44.387899999999973
10
186.42604230000046
20
47.186799999999984
10
185.60004230000047
20
47.186799999999984
10
185.60004230000047
20
53.456699999999977
10
183.87504230000044
20
53.456699999999977
10
183.87504230000044
20
54.656899999999993
10
180.57604230000049
20
54.656899999999993
10
180.57604230000049
20
53.456699999999977
10
178.85104230000053
20
53.456699999999977
10
178.85104230000053
20
48.98769999999999
10
177.32504230000046
20
48.98769999999999
10
177.32504230000046
20
53.686699999999981
10
163.32604230000044
20
53.686699999999981
10
163.32604230000044
20
48.98769999999999
10
161.80004230000054
20
48.98769999999999
10
161.80004230000054
20
53.456699999999977
10
160.07504230000055
20
53.456699999999977
10
160.07504230000055
20
54.656899999999993
10
156.77604230000043
20
54.656899999999993
10
156.77604230000043
20
53.456699999999977
10
155.05104230000043
20
53.456699999999977
10
155.05104230000043
20
47.186799999999984
10
154.22504230000044
20
47.186799999999984
10
154.22504230000044
20
44.387899999999973
10
155.05104230000043
20
44.387899999999973
10
155.05104230000043
20
41.157799999999966
10
161.80004230000054
20
41.157799999999966
10
161.80004230000054
20
44.387899999999973
10
163.32604230000044
20
44.387899999999973
10
163.32604230000044
20
39.687399999999982
10
177.32504230000046
20
39.687399999999982
10
177.32504230000046
20
44.387899999999973
10
178.85104230000053
20
44.387899999999973
0
LINE
5
184
100
AcDbEntity
8
0
100
AcDbLine
10
135.2001661939014
20
26.623144513593626
30
0
11
105.20016619390141
21
26.623144513593626
31
0
0
CIRCLE
5
185
100
AcDbEntity
8
0
100
AcDbCircle
10
-475.49999976188178
20
6.9999999999999929
30
0
40
1.4999999999999858
210
0
220
0
230
-1
0
LWPOLYLINE
5
186
100
AcDbEntity
8
0
100
AcDbPolyline
90
4
70
1
43
0.0
10
191.90104230000046
20
29.874499999999955
10
191.90104230000046
20
15.874499999999969
10
205.90004230000048
20
15.874499999999969
10
205.90004230000048
20
29.874499999999955
0
LWPOLYLINE
5
187
100
AcDbEntity
8
0
100
AcDbPolyline
90
4
70
1
43
0.0
10
43.974042300000498
20
39.687399999999982
10
43.974042300000498
20
53.686699999999981
10
29.976042300000501
20
53.686699999999981
10
29.976042300000501
20
39.687399999999982
0
LWPOLYLINE
5
188
100
AcDbEntity
8
0
100
AcDbPolyline
90
4
70
1
43
0.0
10
63.024042300000502
20
58.73739999999998
10
63.024042300000502
20
72.736699999999971
10
49.026042300000512
20
72.736699999999971
10
49.026042300000512
20
58.73739999999998
0
LWPOLYLINE
5
189
100
AcDbEntity
8
0
100
AcDbPolyline
90
4
70
1
43
0.0
10
24.924042300000483
20
53.686699999999981
10
10.926042300000489
20
53.686699999999981
10
10.926042300000489
20
39.687399999999982
10
24.924042300000483
20
39.687399999999982
0
LWPOLYLINE
5
190
100
AcDbEntity
8
0
100
AcDbPolyline
90
36
70
1
43
0.0
10
169.95304230000045
20
66.736999999999966
10
165.48304230000056
20
66.736999999999966
10
165.48304230000056
20
68.262399999999971
10
170.18304230000055
20
68.262399999999971
10
170.18304230000055
20
82.261699999999976
10
165.48304230000056
20
82.261699999999976
10
165.48304230000056
20
83.787499999999966
10
169.95304230000045
20
83.787499999999966
10
169.95304230000045
20
85.512599999999978
10
171.15304230000046
20
85.512599999999978
10
171.15304230000046
20
88.811799999999977
10
169.95304230000045
20
88.811799999999977
10
169.95304230000045
20
90.536799999999971
10
163.68304230000047
20
90.536799999999971
10
163.68304230000047
20
91.362299999999962
10
160.88304230000048
20
91.362299999999962
10
160.88304230000048
20
90.536799999999971
10
157.65304230000041
20
90.536799999999971
10
157.65304230000041
20
83.787499999999966
10
160.88304230000048
20
83.787499999999966
10
160.88304230000048
20
82.261699999999976
10
156.18204230000049
20
82.261699999999976
10
156.18204230000049
20
68.262399999999971
10
160.88304230000048
20
68.262399999999971
10
160.88304230000048
20
66.736999999999966
10
157.65304230000041
20
66.736999999999966
10
157.65304230000041
20
59.987299999999983
10
160.88304230000048
20
59.987299999999983
10
160.88304230000048
20
59.161799999999971
10
163.68304230000047
20
59.161799999999971
10
163.68304230000047
20
59.987299999999983
10
169.95304230000045
20
59.987299999999983
10
169.95304230000045
20
61.712399999999974
10
171.15304230000046
20
61.712399999999974
10
171.15304230000046
20
65.011599999999973
10
169.95304230000045
20
65.011599999999973
0
LWPOLYLINE
5
191
100
AcDbEntity
8
0
100
AcDbPolyline
90
4
70
1
43
0.0
10
163.32604230000044
20
29.874499999999955
10
163.32604230000044
20
15.874499999999969
10
177.32504230000046
20
15.874499999999969
10
177.32504230000046
20
29.874499999999955
0
LWPOLYLINE
5
192
100
AcDbEntity
8
0
100
AcDbPolyline
90
4
70
1
43
0.0
10
215.71304230000052
20
77.787399999999977
10
229.71304230000047
20
77.787399999999977
10
229.71304230000047
20
91.786699999999968
10
215.71304230000052
20
91.786699999999968
0
LWPOLYLINE
5
193
100
AcDbEntity
8
0
100
AcDbPolyline
90
4
70
1
43
0.0
10
220.47604230000047
20
58.73739999999998
10
234.4750423000005
20
58.73739999999998
10
234.4750423000005
20
72.736699999999971
10
220.47604230000047
20
72.736699999999971
0
LWPOLYLINE
5
194
100
AcDbEntity
8
0
100
AcDbPolyline
90
4
70
1
43
0.0
10
177.6130423000005
20
77.787399999999977
10
191.61304230000044
20
77.787399999999977
10
191.61304230000044
20
91.786699999999968
10
177.6130423000005
20
91.786699999999968
0
LINE
5
195
100
AcDbEntity
8
0
100
AcDbLine
10
135.2001661939014
20
85.62314451359363
30
0
11
105.20016619390141
21
85.62314451359363
31
0
0
LWPOLYLINE
5
196
100
AcDbEntity
8
0
100
AcDbPolyline
90
4
70
1
43
0.0
10
205.90004230000048
20
39.687399999999982
10
205.90004230000048
20
53.686699999999981
10
191.90104230000046
20
53.686699999999981
10
191.90104230000046
20
39.687399999999982
0
LWPOLYLINE
5
197
100
AcDbEntity
8
0
100
AcDbPolyline
90
4
70
1
43
0.0
10
196.37504230000047
20
72.736699999999971
10
182.37604230000042
20
72.736699999999971
10
182.37604230000042
20
58.73739999999998
10
196.37504230000047
20
58.73739999999998
0
LWPOLYLINE
5
198
100
AcDbEntity
8
0
100
AcDbPolyline
90
4
70
1
43
0.0
10
210.66304230000046
20
91.786699999999968
10
196.66304230000048
20
91.786699999999968
10
196.66304230000048
20
77.787399999999977
10
210.66304230000046
20
77.787399999999977
0
LWPOLYLINE
5
199
100
AcDbEntity
8
0
100
AcDbPolyline
90
4
70
1
43
0.0
10
215.42504230000048
20
58.73739999999998
10
215.42504230000048
20
72.736699999999971
10
201.42604230000046
20
72.736699999999971
10
201.42604230000046
20
58.73739999999998
0
LWPOLYLINE
5
200
100
AcDbEntity
8
0
100
AcDbPolyline
90
4
70
1
43
0.0
10
449.07584230000055
20
53.686699999999981
10
449.07584230000055
20
39.687399999999982
10
463.07539230000037
20
39.687399999999982
10
463.07539230000037
20
53.686699999999981
0
LWPOLYLINE
5
201
100
AcDbEntity
8
0
100
AcDbPolyline
90
4
70
1
43
0.0
10
110.9380423000006
20
129.88685999999998
10
110.9380423000006
20
115.88740000000001
10
124.93804230000052
20
115.88740000000001
10
124.93804230000052
20
129.88685999999998
0
LWPOLYLINE
5
202
100
AcDbEntity
8
0
100
AcDbPolyline
90
4
70
1
43
0.0
10
29.976042300000501
20
77.787399999999977
10
43.974042300000498
20
77.787399999999977
10
43.974042300000498
20
91.786699999999968
10
29.976042300000501
20
91.786699999999968
0
LWPOLYLINE
5
203
100
AcDbEntity
8
0
100
AcDbPolyline
90
4
70
1
43
0.0
10
348.77504230000051
20
72.736699999999971
10
334.77604230000048
20
72.736699999999971
10
334.77604230000048
20
58.73739999999998
10
348.77504230000051
20
58.73739999999998
0
LWPOLYLINE
5
204
100
AcDbEntity
8
0
100
AcDbPolyline
90
4
70
1
43
0.0
10
49.026042300000512
20
110.83689999999997
10
49.026042300000512
20
96.837499999999963
10
63.024042300000502
20
96.837499999999963
10
63.024042300000502
20
110.83689999999997
0
LWPOLYLINE
5
205
100
AcDbEntity
8
0
100
AcDbPolyline
90
4
70
1
43
0.0
10
396.40034230000055
20
29.874499999999955
10
382.40104230000054
20
29.874499999999955
10
382.40104230000054
20
15.874499999999969
10
396.40034230000055
20
15.874499999999969
0
LWPOLYLINE
5
206
100
AcDbEntity
8
0
100
AcDbPolyline
90
4
70
1
43
0.0
10
339.25004230000047
20
29.874499999999955
10
325.25104230000062
20
29.874499999999955
10
325.25104230000062
20
15.874499999999969
10
339.25004230000047
20
15.874499999999969
0
LWPOLYLINE
5
207
100
AcDbEntity
8
0
100
AcDbPolyline
90
4
70
1
43
0.0
10
353.5380423000006
20
96.837499999999963
10
353.5380423000006
20
110.83689999999997
10
339.53804230000054
20
110.83689999999997
10
339.53804230000054
20
96.837499999999963
0
LWPOLYLINE
5
208
100
AcDbEntity
8
0
100
AcDbPolyline
90
4
70
1
43
0.0
10
372.58784230000055
20
110.83689999999997
10
358.58804230000044
20
110.83689999999997
10
358.58804230000044
20
96.837499999999963
10
372.58784230000055
20
96.837499999999963
0
LWPOLYLINE
5
209
100
AcDbEntity
8
0
100
AcDbPolyline
90
4
70
1
43
0.0
10
377.35034230000053
20
29.874499999999955
10
363.35104230000059
20
29.874499999999955
10
363.35104230000059
20
15.874499999999969
10
377.35034230000053
20
15.874499999999969
0
LWPOLYLINE
5
210
100
AcDbEntity
8
0
100
AcDbPolyline
90
4
70
1
43
0.0
10
225.23804230000053
20
96.837499999999963
10
239.23804230000044
20
96.837499999999963
10
239.23804230000044
20
110.83689999999997
10
225.23804230000053
20
110.83689999999997
0
LINE
5
211
100
AcDbEntity
8
0
100
AcDbLine
10
135.2001661939014
20
26.623144513593626
30
0
11
136.2001661939014
21
26.623144513593626
31
0
0
LINE
5
212
100
AcDbEntity
8
0
100
AcDbLine
10
136.2001661939014
20
26.623144513593626
30
0
11
136.2001661939014
21
24.623144513593623
31
0
0
LINE
5
213
100
AcDbEntity
8
0
100
AcDbLine
10
136.2001661939014
20
24.623144513593623
30
0
11
135.2001661939014
21
24.623144513593623
31
0
0
LINE
5
214
100
AcDbEntity
8
0
100
AcDbLine
10
105.20016619390141
20
26.623144513593626
30
0
11
104.20016619390141
21
26.623144513593626
31
0
0
LINE
5
215
100
AcDbEntity
8
0
100
AcDbLine
10
104.20016619390141
20
26.623144513593626
30
0
11
104.20016619390141
21
24.623144513593623
31
0
0
LINE
5
216
100
AcDbEntity
8
0
100
AcDbLine
10
104.20016619390141
20
24.623144513593623
30
0
11
105.20016619390141
21
24.623144513593623
31
0
0
LINE
5
217
100
AcDbEntity
8
0
100
AcDbLine
10
105.20016619390141
20
85.62314451359363
30
0
11
104.20016619390141
21
85.62314451359363
31
0
0
LINE
5
218
100
AcDbEntity
8
0
100
AcDbLine
10
104.20016619390141
20
85.62314451359363
30
0
11
104.20016619390141
21
83.623144513593644
31
0
0
LINE
5
219
100
AcDbEntity
8
0
100
AcDbLine
10
104.20016619390141
20
83.623144513593644
30
0
11
105.20016619390141
21
83.623144513593644
31
0
0
LINE
5
220
100
AcDbEntity
8
0
100
AcDbLine
10
135.2001661939014
20
85.62314451359363
30
0
11
136.2001661939014
21
85.62314451359363
31
0
0
LINE
5
221
100
AcDbEntity
8
0
100
AcDbLine
10
136.2001661939014
20
85.62314451359363
30
0
11
136.2001661939014
21
83.623144513593644
31
0
0
LINE
5
222
100
AcDbEntity
8
0
100
AcDbLine
10
136.2001661939014
20
83.623144513593644
30
0
11
135.2001661939014
21
83.623144513593644
31
0
0
CIRCLE
5
223
100
AcDbEntity
8
0
100
AcDbCircle
10
62.000000000000242
20
140.40721476869325
30
0
40
1.5000000000000224
210
0
220
0
230
1
0
CIRCLE
5
224
100
AcDbEntity
8
0
100
AcDbCircle
10
136.99999988094106
20
140.40721476869319
30
0
40
1.4999999999999929
210
0
220
0
230
1
0
CIRCLE
5
225
100
AcDbEntity
8
0
100
AcDbCircle
10
136.99999988094106
20
3.4999999999999964
30
0
40
1.4999999999999929
210
0
220
0
230
1
0
CIRCLE
5
226
100
AcDbEntity
8
0
100
AcDbCircle
10
336.99999988094106
20
140.40721476869319
30
0
40
1.4999999999999958
210
0
220
0
230
1
0
CIRCLE
5
227
100
AcDbEntity
8
0
100
AcDbCircle
10
-1.4999999999996305
20
136.90721476869325
30
0
40
1.5000000000000027
210
0
220
0
230
1
0
CIRCLE
5
228
100
AcDbEntity
8
0
100
AcDbCircle
10
-1.4999999999996305
20
37.000000000000043
30
0
40
1.4999999999999989
210
0
220
0
230
1
0
CIRCLE
5
229
100
AcDbEntity
8
0
100
AcDbCircle
10
261.99999988094106
20
140.40721476869319
30
0
40
1.4999999999999993
210
0
220
0
230
1
0
CIRCLE
5
230
100
AcDbEntity
8
0
100
AcDbCircle
10
475.49999976188184
20
136.90721476869325
30
0
40
1.5000000000000027
210
0
220
0
230
1
0
CIRCLE
5
231
100
AcDbEntity
8
0
100
AcDbCircle
10
261.99999988094106
20
3.4999999999999964
30
0
40
1.4999999999999993
210
0
220
0
230
1
0
CIRCLE
5
232
100
AcDbEntity
8
0
100
AcDbCircle
10
-1.4999999999996305
20
106.90721476869328
30
0
40
1.5000000000000047
210
0
220
0
230
1
0
CIRCLE
5
233
100
AcDbEntity
8
0
100
AcDbCircle
10
62.000000000000242
20
3.5000000000000675
30
0
40
1.5000000000000224
210
0
220
0
230
1
0
CIRCLE
5
234
100
AcDbEntity
8
0
100
AcDbCircle
10
411.999999880941
20
3.4999999999999964
30
0
40
1.4999999999999933
210
0
220
0
230
1
0
CIRCLE
5
235
100
AcDbEntity
8
0
100
AcDbCircle
10
475.4999997618819
20
37.000000000000043
30
0
40
1.4999999999999989
210
0
220
0
230
1
0
CIRCLE
5
236
100
AcDbEntity
8
0
100
AcDbCircle
10
475.49999976188184
20
71.953607384346654
30
0
40
1.4999999999999942
210
0
220
0
230
1
0
CIRCLE
5
237
100
AcDbEntity
8
0
100
AcDbCircle
10
411.999999880941
20
140.40721476869319
30
0
40
1.4999999999999933
210
0
220
0
230
1
0
CIRCLE
5
238
100
AcDbEntity
8
0
100
AcDbCircle
10
212.00000000000017
20
3.5000000000000675
30
0
40
1.4999999999999925
210
0
220
0
230
1
0
CIRCLE
5
239
100
AcDbEntity
8
0
100
AcDbCircle
10
212.00000000000017
20
140.40721476869325
30
0
40
1.4999999999999925
210
0
220
0
230
1
0
CIRCLE
5
240
100
AcDbEntity
8
0
100
AcDbCircle
10
-1.4999999999996305
20
7.0000000000000639
30
-5.0291646175789742e-30
40
1.5000000000000142
210
0
220
0
230
1
0
CIRCLE
5
241
100
AcDbEntity
8
0
100
AcDbCircle
10
-1.4999999999996305
20
71.953607384346654
30
0
40
1.4999999999999942
210
0
220
0
230
1
0
CIRCLE
5
242
100
AcDbEntity
8
0
100
AcDbCircle
10
336.99999988094106
20
3.4999999999999964
30
0
40
1.4999999999999958
210
0
220
0
230
1
0
CIRCLE
5
243
100
AcDbEntity
8
0
100
AcDbCircle
10
475.49999976188184
20
106.90721476869328
30
0
40
1.5000000000000047
210
0
220
0
230
1
0
ENDSEC
0
SECTION
2
OBJECTS
0
DICTIONARY
5
C
100
AcDbDictionary
3
ACAD_GROUP
350
D
3
ACAD_MLINESTYLE
350
17
0
DICTIONARY
5
D
100
AcDbDictionary
0
DICTIONARY
5
1A
330
C
100
AcDbDictionary
0
DICTIONARY
5
17
100
AcDbDictionary
0
ENDSEC
0
EOF
